<svg width="143" height="143" viewBox="0 0 143 143" fill="none" xmlns="http://www.w3.org/2000/svg">
<path d="M65.5416 59.5834C78.7044 59.5834 89.3749 48.9129 89.3749 35.7501C89.3749 22.5873 78.7044 11.9167 65.5416 11.9167C52.3788 11.9167 41.7083 22.5873 41.7083 35.7501C41.7083 48.9129 52.3788 59.5834 65.5416 59.5834Z" fill="url(#paint0_linear_59618_40641)"/>
<path fill-rule="evenodd" clip-rule="evenodd" d="M86.471 128.029C89.5246 131.083 94.4403 131.083 104.271 131.083C114.102 131.083 119.017 131.083 122.071 128.029C125.125 124.975 125.125 120.06 125.125 110.229C125.125 100.399 125.125 95.4829 122.071 92.4292C119.017 89.375 114.102 89.375 104.271 89.375C94.4403 89.375 89.5246 89.375 86.471 92.4292C83.4167 95.4829 83.4167 100.399 83.4167 110.229C83.4167 120.06 83.4167 124.975 86.471 128.029ZM98.4711 119.027C94.2877 116.031 89.3751 112.513 89.3751 106.415C89.3751 99.6823 97.5678 94.9073 104.271 101.38C110.974 94.9073 119.167 99.6823 119.167 106.415C119.167 112.513 114.254 116.031 110.071 119.027C109.636 119.338 109.209 119.643 108.797 119.946C107.25 121.079 105.76 122.146 104.271 122.146C102.781 122.146 101.292 121.079 99.745 119.946C99.3326 119.643 98.9054 119.338 98.4711 119.027Z" fill="url(#paint1_linear_59618_40641)"/>
<path opacity="0.5" d="M86.9571 128.477C86.7897 128.335 86.6276 128.186 86.4709 128.029C83.4167 124.975 83.4167 120.06 83.4167 110.229C83.4167 100.399 83.4167 95.4829 86.4709 92.4292C89.5246 89.375 94.4402 89.375 104.271 89.375C105.165 89.375 106.018 89.375 106.834 89.3774C98.5925 81.3616 83.1867 75.9688 65.5417 75.9688C39.2161 75.9688 17.875 87.973 17.875 102.781C17.875 117.589 17.875 129.594 65.5417 129.594C74.1372 129.594 81.1823 129.203 86.9571 128.477Z" fill="url(#paint2_linear_59618_40641)"/>
<defs>
<linearGradient id="paint0_linear_59618_40641" x1="41.7083" y1="11.9167" x2="89.3749" y2="59.5834" gradientUnits="userSpaceOnUse">
<stop stop-color="#B39FFF"/>
<stop offset="1" stop-color="#6A1ED2"/>
</linearGradient>
<linearGradient id="paint1_linear_59618_40641" x1="83.4167" y1="89.375" x2="125.125" y2="131.083" gradientUnits="userSpaceOnUse">
<stop stop-color="#B39FFF"/>
<stop offset="1" stop-color="#6A1ED2"/>
</linearGradient>
<linearGradient id="paint2_linear_59618_40641" x1="17.875" y1="75.9688" x2="65.2949" y2="154.634" gradientUnits="userSpaceOnUse">
<stop stop-color="#B39FFF"/>
<stop offset="1" stop-color="#6A1ED2"/>
</linearGradient>
</defs>
</svg>
