<svg width="143" height="143" viewBox="0 0 143 143" fill="none" xmlns="http://www.w3.org/2000/svg">
<path opacity="0.5" d="M59.5832 119.167H81.1917C76.9881 113.841 74.479 107.114 74.479 99.8021C74.479 82.5259 88.4841 68.5209 105.76 68.5209C116.156 68.5209 125.367 73.592 131.055 81.395C131.083 78.3623 131.083 75.0733 131.083 71.5C131.083 68.8671 131.083 61.919 131.072 59.5834H11.9278C11.9165 61.919 11.9165 68.8671 11.9165 71.5C11.9165 93.9701 11.9165 105.206 18.8971 112.186C25.8778 119.167 37.1129 119.167 59.5832 119.167Z" fill="url(#paint0_linear_59618_40632)"/>
<path d="M31.2812 95.3334C31.2812 92.8654 33.282 90.8646 35.75 90.8646H59.5833C62.0513 90.8646 64.0521 92.8654 64.0521 95.3334C64.0521 97.8013 62.0513 99.8021 59.5833 99.8021H35.75C33.282 99.8021 31.2812 97.8013 31.2812 95.3334Z" fill="url(#paint1_linear_59618_40632)"/>
<path fill-rule="evenodd" clip-rule="evenodd" d="M105.76 86.3959C98.3564 86.3959 92.354 92.3983 92.354 99.8021C92.354 107.206 98.3564 113.208 105.76 113.208C113.164 113.208 119.167 107.206 119.167 99.8021C119.167 92.3983 113.164 86.3959 105.76 86.3959ZM83.4165 99.8021C83.4165 87.4618 93.4199 77.4584 105.76 77.4584C118.101 77.4584 128.104 87.4618 128.104 99.8021C128.104 104.356 126.741 108.592 124.402 112.124L129.774 117.497C131.519 119.242 131.519 122.071 129.774 123.816C128.029 125.561 125.2 125.561 123.455 123.816L118.082 118.444C114.55 120.783 110.314 122.146 105.76 122.146C93.4199 122.146 83.4165 112.142 83.4165 99.8021Z" fill="url(#paint2_linear_59618_40632)"/>
<path d="M59.5524 23.8334H83.4475C105.975 23.8334 117.24 23.8334 124.238 30.4816C129.277 35.2684 130.688 42.1557 131.083 53.625V59.5834H11.9165V53.625C12.3115 42.1557 13.7225 35.2684 18.7615 30.4816C25.7601 23.8334 37.0242 23.8334 59.5524 23.8334Z" fill="url(#paint3_linear_59618_40632)"/>
<defs>
<linearGradient id="paint0_linear_59618_40632" x1="11.9165" y1="59.5834" x2="59.5832" y2="154.917" gradientUnits="userSpaceOnUse">
<stop stop-color="#B39FFF"/>
<stop offset="1" stop-color="#6A1ED2"/>
</linearGradient>
<linearGradient id="paint1_linear_59618_40632" x1="31.2812" y1="90.8646" x2="35.8188" y2="107.502" gradientUnits="userSpaceOnUse">
<stop stop-color="#B39FFF"/>
<stop offset="1" stop-color="#6A1ED2"/>
</linearGradient>
<linearGradient id="paint2_linear_59618_40632" x1="83.4165" y1="77.4584" x2="131.083" y2="125.125" gradientUnits="userSpaceOnUse">
<stop stop-color="#B39FFF"/>
<stop offset="1" stop-color="#6A1ED2"/>
</linearGradient>
<linearGradient id="paint3_linear_59618_40632" x1="11.9165" y1="23.8334" x2="31.5954" y2="89.4297" gradientUnits="userSpaceOnUse">
<stop stop-color="#B39FFF"/>
<stop offset="1" stop-color="#6A1ED2"/>
</linearGradient>
</defs>
</svg>
