<svg width="143" height="143" viewBox="0 0 143 143" fill="none" xmlns="http://www.w3.org/2000/svg">
<path opacity="0.5" d="M20.1244 30.2826C17.875 33.4875 17.875 43.0136 17.875 62.0661V71.4487C17.875 105.042 43.1321 121.344 58.9789 128.267C63.2775 130.144 65.4267 131.083 71.5 131.083C77.5733 131.083 79.7225 130.144 84.0208 128.267C99.8676 121.344 125.125 105.042 125.125 71.4487V62.0661C125.125 43.0136 125.125 33.4875 122.876 30.2826C120.626 27.0778 111.669 24.0118 93.755 17.8797L90.342 16.7114C81.0035 13.5149 76.3346 11.9166 71.5 11.9166C66.6654 11.9166 61.9965 13.5149 52.6581 16.7114L49.2451 17.8797C31.3308 24.0118 22.3737 27.0778 20.1244 30.2826Z" fill="url(#paint0_linear_59621_40656)"/>
<path d="M89.7296 62.5596C91.3729 60.7184 91.2132 57.8938 89.3721 56.25C87.531 54.6063 84.7061 54.7662 83.0628 56.6072L65.1163 76.707L59.9379 70.9072C58.294 69.0661 55.469 68.9064 53.6281 70.5503C51.7871 72.1936 51.6271 75.0184 53.2709 76.8596L61.7826 86.3929C62.6305 87.3427 63.843 87.8855 65.1163 87.8855C66.389 87.8855 67.6015 87.3427 68.4494 86.3929L89.7296 62.5596Z" fill="url(#paint1_linear_59621_40656)"/>
<defs>
<linearGradient id="paint0_linear_59621_40656" x1="17.875" y1="11.9166" x2="136.383" y2="118.574" gradientUnits="userSpaceOnUse">
<stop stop-color="#B39FFF"/>
<stop offset="1" stop-color="#6A1ED2"/>
</linearGradient>
<linearGradient id="paint1_linear_59621_40656" x1="52.1355" y1="55.1146" x2="84.4543" y2="93.3096" gradientUnits="userSpaceOnUse">
<stop stop-color="#B39FFF"/>
<stop offset="1" stop-color="#6A1ED2"/>
</linearGradient>
</defs>
</svg>
