<svg width="148" height="143" viewBox="0 0 148 143" fill="none" xmlns="http://www.w3.org/2000/svg">
<path opacity="0.5" d="M129.5 95.3232V59.573C129.5 42.7203 129.5 34.2939 124.081 29.0585C119.343 24.4802 112.079 23.9055 98.6667 23.8334H49.3333C35.9206 23.9055 28.6569 24.4802 23.9185 29.0585C18.5 34.2939 18.5 42.7203 18.5 59.573V95.3232C18.5 112.176 18.5 120.602 23.9185 125.838C29.3371 131.073 38.058 131.073 55.5 131.073H92.5C109.942 131.073 118.663 131.073 124.081 125.838C129.5 120.602 129.5 112.176 129.5 95.3232Z" fill="url(#paint0_linear_59618_40649)"/>
<path d="M49.3335 20.8541C49.3335 15.9181 53.4748 11.9166 58.5835 11.9166H89.4168C94.5253 11.9166 98.6668 15.9181 98.6668 20.8541V26.8125C98.6668 31.7485 94.5253 35.75 89.4168 35.75H58.5835C53.4748 35.75 49.3335 31.7485 49.3335 26.8125V20.8541Z" fill="url(#paint1_linear_59618_40649)"/>
<path fill-rule="evenodd" clip-rule="evenodd" d="M38.5415 62.5625C38.5415 60.0946 40.6122 58.0938 43.1665 58.0938H46.2498C48.8041 58.0938 50.8748 60.0946 50.8748 62.5625C50.8748 65.0304 48.8041 67.0312 46.2498 67.0312H43.1665C40.6122 67.0312 38.5415 65.0304 38.5415 62.5625ZM60.1248 62.5625C60.1248 60.0946 62.1956 58.0938 64.7498 58.0938H104.833C107.387 58.0938 109.458 60.0946 109.458 62.5625C109.458 65.0304 107.387 67.0312 104.833 67.0312H64.7498C62.1956 67.0312 60.1248 65.0304 60.1248 62.5625ZM38.5415 83.4167C38.5415 80.9487 40.6122 78.9479 43.1665 78.9479H46.2498C48.8041 78.9479 50.8748 80.9487 50.8748 83.4167C50.8748 85.8846 48.8041 87.8854 46.2498 87.8854H43.1665C40.6122 87.8854 38.5415 85.8846 38.5415 83.4167ZM60.1248 83.4167C60.1248 80.9487 62.1956 78.9479 64.7498 78.9479H104.833C107.387 78.9479 109.458 80.9487 109.458 83.4167C109.458 85.8846 107.387 87.8854 104.833 87.8854H64.7498C62.1956 87.8854 60.1248 85.8846 60.1248 83.4167ZM38.5415 104.271C38.5415 101.803 40.6122 99.8021 43.1665 99.8021H46.2498C48.8041 99.8021 50.8748 101.803 50.8748 104.271C50.8748 106.739 48.8041 108.74 46.2498 108.74H43.1665C40.6122 108.74 38.5415 106.739 38.5415 104.271ZM60.1248 104.271C60.1248 101.803 62.1956 99.8021 64.7498 99.8021H104.833C107.387 99.8021 109.458 101.803 109.458 104.271C109.458 106.739 107.387 108.74 104.833 108.74H64.7498C62.1956 108.74 60.1248 106.739 60.1248 104.271Z" fill="url(#paint2_linear_59618_40649)"/>
<defs>
<linearGradient id="paint0_linear_59618_40649" x1="18.5" y1="23.8334" x2="125.676" y2="134.767" gradientUnits="userSpaceOnUse">
<stop stop-color="#B39FFF"/>
<stop offset="1" stop-color="#6A1ED2"/>
</linearGradient>
<linearGradient id="paint1_linear_59618_40649" x1="49.3335" y1="11.9166" x2="68.0041" y2="50.5634" gradientUnits="userSpaceOnUse">
<stop stop-color="#B39FFF"/>
<stop offset="1" stop-color="#6A1ED2"/>
</linearGradient>
<linearGradient id="paint2_linear_59618_40649" x1="38.5415" y1="58.0938" x2="86.447" y2="125.173" gradientUnits="userSpaceOnUse">
<stop stop-color="#B39FFF"/>
<stop offset="1" stop-color="#6A1ED2"/>
</linearGradient>
</defs>
</svg>
