<svg width="365" height="493" viewBox="0 0 365 493" fill="none" xmlns="http://www.w3.org/2000/svg">
<path d="M344.47 181.824C289.638 152.848 236.032 103.419 191.101 40.4429L190.493 40.1147C145.562 54.6339 91.9561 46.2388 37.1274 16.078L35.0298 14.9261L37.9882 110.623C48.3918 258.962 102.556 323.527 189.734 461.44L191.856 462.585C279.034 418.699 333.199 412.556 343.602 275.441L346.561 182.937L344.47 181.824Z" fill="#C2BEF4"/>
<path d="M362.906 166.901C308.074 137.926 254.468 88.5 209.537 25.5201L208.929 25.1919C164.001 39.7111 110.392 31.3193 55.563 1.15523L53.4654 0L35.6167 15.251L37.124 16.0781C91.9527 46.2421 145.562 54.6339 190.49 40.1148L191.098 40.443C236.029 103.42 289.635 152.848 344.467 181.824L346.561 182.93L343.603 275.434C336.811 364.929 311.369 398.621 270.282 423.435C321.615 395.119 354.403 361.102 362.038 260.508L364.996 168.004L362.906 166.901Z" fill="#EFEDFF"/>
<path d="M365 168.007L362.906 166.898C308.074 137.922 254.468 88.4966 209.537 25.5168L208.929 25.1886L190.493 40.1147L191.101 40.4429C236.032 103.419 289.638 152.848 344.47 181.824L346.564 182.93L365 168.007Z" fill="#EFEDFF"/>
<path d="M346.564 182.934L343.606 275.437C336.814 364.932 311.373 398.624 270.286 423.438C321.618 395.122 354.407 361.105 362.042 260.511L365 168.007L346.564 182.934Z" fill="#ADA2E5"/>
<path d="M338.779 185.523C285.166 157.19 232.754 108.864 188.821 47.2857L188.227 46.9641C144.301 61.1584 91.8826 52.9536 38.2731 23.4623L36.2247 22.3334L18.7729 37.2431L20.2486 38.0537C73.8581 67.545 126.273 75.7497 170.203 61.5555L170.797 61.8771C214.73 123.452 267.141 171.782 320.754 200.114L322.803 201.197L319.907 291.644C313.267 379.146 288.391 412.09 248.221 436.353C298.412 408.667 330.473 375.404 337.935 277.052L340.831 186.606L338.779 185.523Z" fill="url(#paint0_linear_59634_40701)"/>
<path d="M340.827 186.606L338.779 185.523C285.166 157.19 232.754 108.864 188.821 47.2857L188.227 46.9641L170.199 61.5555L170.793 61.8771C214.726 123.452 267.138 171.782 320.751 200.114L322.799 201.197L340.827 186.606Z" fill="url(#paint1_linear_59634_40701)"/>
<path d="M322.803 201.197L319.907 291.644C313.267 379.146 288.391 412.09 248.221 436.353C298.412 408.667 330.473 375.404 337.935 277.052L340.83 186.606L322.803 201.197Z" fill="url(#paint2_linear_59634_40701)"/>
<path d="M309.44 211.532C254.608 182.556 201.002 133.127 156.071 70.1508L155.463 69.8226C110.532 84.3417 56.9263 75.9466 2.09758 45.7859L0 44.6339L2.9584 140.331C13.362 288.67 67.5266 353.235 154.704 491.147L156.83 492.286C244.008 448.401 298.173 442.257 308.576 305.142L311.535 212.638L309.44 211.532Z" fill="#C2BEF4"/>
<path d="M327.876 196.606C273.044 167.63 219.438 118.204 174.507 55.2246L173.899 54.8964C128.971 69.4156 75.3619 61.0237 20.5332 30.8597L18.4391 29.7045L0.590332 44.9555L2.09763 45.7825C56.9263 75.9433 110.536 84.3384 155.463 69.8192L156.071 70.1474C201.002 133.124 254.608 182.553 309.441 211.529L311.535 212.635L308.576 305.139C301.785 394.633 276.343 428.325 235.256 453.14C286.589 424.823 319.377 390.806 327.012 290.213L329.97 197.709L327.876 196.606Z" fill="#EFEDFF"/>
<path d="M329.974 197.715L327.879 196.606C273.047 167.63 219.441 118.204 174.51 55.2246L173.902 54.8964L155.467 69.8225L156.075 70.1507C201.006 133.127 254.612 182.556 309.444 211.532L311.538 212.638L329.974 197.715Z" fill="#EFEDFF"/>
<path d="M311.535 212.638L308.576 305.142C301.785 394.636 276.343 428.329 235.256 453.143C286.589 424.827 319.377 390.81 327.012 290.216L329.97 197.712L311.535 212.638Z" fill="#ADA2E5"/>
<path d="M144.93 428.361C77.2557 323.508 43.2166 270.757 35.0054 155.674L33.1362 95.2639C76.5881 113.613 118.241 119.465 155.773 112.487C193.29 159.937 234.947 199.015 278.399 227.531L276.529 285.926C268.318 392.165 234.279 408.201 166.594 440.071C163.053 441.745 159.451 443.438 155.773 445.184C152.083 439.464 148.468 433.852 144.93 428.361Z" fill="url(#paint3_linear_59634_40701)"/>
<path d="M148.689 426.605C81.0153 321.752 46.9761 269.002 38.765 153.918L36.9977 96.8294C35.7082 96.3043 34.4258 95.8087 33.1328 95.2639L35.002 155.674C43.2131 270.757 77.2523 323.508 144.926 428.361C148.468 433.852 152.08 439.464 155.769 445.181C157.045 444.577 158.264 444.003 159.522 443.409C155.839 437.695 152.228 432.093 148.689 426.605Z" fill="#61469C"/>
<defs>
<linearGradient id="paint0_linear_59634_40701" x1="18.7729" y1="22.3334" x2="420.066" y2="334.492" gradientUnits="userSpaceOnUse">
<stop stop-color="#B39FFF"/>
<stop offset="1" stop-color="#6A1ED2"/>
</linearGradient>
<linearGradient id="paint1_linear_59634_40701" x1="170.199" y1="46.9641" x2="323.649" y2="216.725" gradientUnits="userSpaceOnUse">
<stop stop-color="#B39FFF"/>
<stop offset="1" stop-color="#6A1ED2"/>
</linearGradient>
<linearGradient id="paint2_linear_59634_40701" x1="248.221" y1="186.606" x2="411.051" y2="246.986" gradientUnits="userSpaceOnUse">
<stop stop-color="#B39FFF"/>
<stop offset="1" stop-color="#6A1ED2"/>
</linearGradient>
<linearGradient id="paint3_linear_59634_40701" x1="33.1362" y1="95.2639" x2="362.066" y2="325.814" gradientUnits="userSpaceOnUse">
<stop stop-color="#B39FFF"/>
<stop offset="1" stop-color="#6A1ED2"/>
</linearGradient>
</defs>
</svg>
