<svg width="32" height="32" viewBox="0 0 32 32" fill="none" xmlns="http://www.w3.org/2000/svg">
<path fill-rule="evenodd" clip-rule="evenodd" d="M16 32C24.8366 32 32 24.8366 32 16C32 7.16344 24.8366 0 16 0C7.16344 0 0 7.16344 0 16C0 24.8366 7.16344 32 16 32ZM11.6719 23.3722V13.6128H8.65556V23.3722H11.6719ZM11.6719 10.1536C11.654 9.2802 11.0719 8.61523 10.1263 8.61523C9.1805 8.61523 8.5625 9.2802 8.5625 10.1536C8.5625 11.008 9.16253 11.6922 10.0901 11.6922H10.1081C11.0719 11.6922 11.6719 11.008 11.6719 10.1536ZM16.593 23.3722V17.8118C16.593 17.5142 16.6145 17.2166 16.702 17.0045C16.9412 16.4096 17.4857 15.7938 18.4 15.7938C19.5977 15.7938 20.3488 16.4735 20.3488 17.8118V23.3722H23.3856V17.663C23.3856 14.6046 21.753 13.1815 19.5753 13.1815C17.7898 13.1815 17.0061 14.1798 16.5709 14.8592L16.5927 13.5539H13.5612C13.6048 14.4882 13.5612 23.3722 13.5612 23.3722H16.593Z" fill="white"/>
</svg>
