<svg width="103" height="21" viewBox="0 0 103 21" fill="none" xmlns="http://www.w3.org/2000/svg">
<path d="M102.551 10.135C102.551 8.80405 102.289 7.48614 101.78 6.2565C101.27 5.02687 100.524 3.90959 99.5828 2.96847C98.6417 2.02735 97.5244 1.28081 96.2947 0.771481C95.0651 0.262149 93.7472 -5.81775e-08 92.4162 0L92.4162 10.135H102.551Z" fill="#B9C0D4"/>
<path d="M0 17.3246V2.61723H9.03454V5.47467H3.27765V8.94141H8.61433V11.6518H3.27765V17.3246H0Z" fill="#F6F7F9"/>
<path d="M10.2359 17.3246V6.39913H12.7362C12.8832 6.81935 13.0093 7.51269 13.0513 7.97493C13.8917 6.98743 15.1524 6.39913 16.6861 6.39913H16.9593V9.34061C16.7492 9.27758 16.434 9.19354 16.1399 9.19354C14.333 9.19354 13.3665 10.118 13.3665 11.5467V17.3246H10.2359Z" fill="#F6F7F9"/>
<path d="M20.6517 17.5557C18.4246 17.5557 16.8488 16.2531 16.8488 14.2991V14.11C16.8488 11.7778 19.0339 10.5592 23.3831 10.5592H24.2025V10.2441C24.2025 9.27758 23.5302 8.62625 22.1855 8.62625H22.1014C21.0089 8.62625 19.7272 9.02546 18.5717 9.67678L17.3741 7.51269C18.6977 6.69328 20.4836 6.16802 22.2485 6.16802H22.4376C25.3161 6.16802 27.144 7.7228 27.144 10.3491V14.8244C27.144 15.7068 27.3121 16.5052 27.5222 17.3246H24.5807C24.4546 16.9885 24.3496 16.5472 24.3075 16.064C23.4671 16.9254 22.2065 17.5557 20.6517 17.5557ZM21.4501 15.1816C22.4796 15.1816 23.5302 14.7613 24.2235 14.026V12.3871H23.4671C21.0089 12.3871 19.8323 12.9334 19.8323 13.9419V14.005C19.8323 14.6983 20.4836 15.1816 21.4501 15.1816Z" fill="#F6F7F9"/>
<path d="M32.2395 17.5557C29.8023 17.5557 28.4366 16.022 28.4366 13.4167V6.39913H31.5672V12.7233C31.5672 14.173 32.1555 14.9294 33.4371 14.9294H33.4791C34.9919 14.9294 35.9794 13.8159 35.9794 12.093V6.39913H39.11V17.3246H36.6307C36.4626 16.9044 36.3156 16.106 36.2945 15.6228C35.3491 16.7994 33.9204 17.5557 32.3025 17.5557H32.2395Z" fill="#F6F7F9"/>
<path d="M45.3545 17.5557C42.35 17.5557 40.1439 15.2656 40.1439 12.072V11.6518C40.1439 8.45817 42.35 6.16802 45.3545 6.16802H45.4806C46.8463 6.16802 48.0649 6.65126 48.9473 7.49168V2.19702H52.0779V17.3246H49.5986C49.4516 16.9674 49.3465 16.3792 49.2835 15.9169C48.359 16.9464 47.0143 17.5557 45.4806 17.5557H45.3545ZM46.0899 15.2236H46.258C47.8128 15.2236 48.9473 13.8789 48.9473 11.9669V11.7568C48.9473 9.84487 47.8338 8.50019 46.258 8.50019H46.0899C44.5351 8.50019 43.4005 9.84487 43.4005 11.7568V11.9669C43.4005 13.8789 44.5351 15.2236 46.0899 15.2236Z" fill="#F6F7F9"/>
<path d="M60.5094 17.5978C56.1602 17.5978 53.1346 14.4042 53.1346 10.034V9.92891C53.1346 5.57972 56.2022 2.36511 60.4673 2.36511H60.4883C63.0306 2.36511 65.0686 3.56271 66.4764 5.55871L64.0601 7.36562C63.1987 6.02094 62.1272 5.30658 60.6564 5.30658C58.1352 5.30658 56.5384 7.19754 56.5384 9.92891V10.034C56.5384 12.7443 58.1352 14.6143 60.6144 14.6143C62.1272 14.6143 63.3458 13.8999 64.1442 12.5973L66.5184 14.4252C65.2788 16.3581 63.0937 17.5978 60.5304 17.5978H60.5094Z" fill="#F6F7F9"/>
<path d="M72.173 17.5557C68.7483 17.5557 66.248 15.2236 66.248 12.072V11.6518C66.248 8.50019 68.7483 6.16802 72.173 6.16802H72.3621C75.7868 6.16802 78.2871 8.50019 78.2871 11.6518V12.072C78.2871 15.2236 75.7868 17.5557 72.3621 17.5557H72.173ZM72.194 15.2236H72.3411C73.8959 15.2236 75.0304 13.8789 75.0304 11.9669V11.7568C75.0304 9.84487 73.8959 8.50019 72.3411 8.50019H72.194C70.6392 8.50019 69.4836 9.84487 69.4836 11.7568V11.9669C69.4836 13.8789 70.6392 15.2236 72.194 15.2236Z" fill="#F6F7F9"/>
<path d="M81.96 17.3246L78.136 6.39913H81.4137L83.8089 14.5933H84.019L86.4352 6.39913H89.6918L85.8469 17.3246H81.96Z" fill="#F6F7F9"/>
<path d="M90.1289 17.3246V6.39913H92.6292C92.7763 6.81935 92.9023 7.51269 92.9444 7.97493C93.7848 6.98743 95.0454 6.39913 96.5792 6.39913H96.8523V9.34061C96.6422 9.27758 96.3271 9.19354 96.0329 9.19354C94.226 9.19354 93.2595 10.118 93.2595 11.5467V17.3246H90.1289Z" fill="#F6F7F9"/>
<path d="M98.7588 17.5978C97.6873 17.5978 96.8259 16.7994 96.8259 15.8119V15.6858C96.8259 14.7403 97.6873 13.9419 98.7588 13.9419C99.8094 13.9419 100.692 14.7403 100.692 15.6858V15.8119C100.692 16.7994 99.8094 17.5978 98.7588 17.5978Z" fill="#F6F7F9"/>
</svg>
