<svg width="103" height="22" viewBox="0 0 103 22" fill="none" xmlns="http://www.w3.org/2000/svg">
<path d="M102.551 11C102.551 9.66904 102.289 8.35113 101.78 7.12149C101.27 5.89186 100.524 4.77458 99.5828 3.83346C98.6417 2.89234 97.5244 2.1458 96.2947 1.63647C95.0651 1.12714 93.7472 0.86499 92.4162 0.86499V11H102.551Z" fill="#B9C0D4"/>
<path d="M0 18.1896V3.48222H9.03454V6.33966H3.27765V9.8064H8.61433V12.5168H3.27765V18.1896H0Z" fill="#101828"/>
<path d="M10.2359 18.1896V7.26412H12.7362C12.8832 7.68434 13.0093 8.37768 13.0513 8.83992C13.8917 7.85242 15.1524 7.26412 16.6861 7.26412H16.9593V10.2056C16.7492 10.1426 16.434 10.0585 16.1399 10.0585C14.333 10.0585 13.3665 10.983 13.3665 12.4117V18.1896H10.2359Z" fill="#101828"/>
<path d="M20.6517 18.4207C18.4246 18.4207 16.8488 17.1181 16.8488 15.1641V14.975C16.8488 12.6428 19.0339 11.4242 23.3831 11.4242H24.2025V11.1091C24.2025 10.1426 23.5302 9.49124 22.1855 9.49124H22.1014C21.0089 9.49124 19.7272 9.89045 18.5717 10.5418L17.3741 8.37768C18.6977 7.55827 20.4836 7.03301 22.2485 7.03301H22.4376C25.3161 7.03301 27.144 8.58779 27.144 11.2141V15.6894C27.144 16.5718 27.3121 17.3702 27.5222 18.1896H24.5807C24.4546 17.8534 24.3496 17.4122 24.3075 16.929C23.4671 17.7904 22.2065 18.4207 20.6517 18.4207ZM21.4501 16.0465C22.4796 16.0465 23.5302 15.6263 24.2235 14.891V13.2521H23.4671C21.0089 13.2521 19.8323 13.7984 19.8323 14.8069V14.8699C19.8323 15.5633 20.4836 16.0465 21.4501 16.0465Z" fill="#101828"/>
<path d="M32.2395 18.4207C29.8023 18.4207 28.4366 16.887 28.4366 14.2817V7.26412H31.5672V13.5883C31.5672 15.038 32.1555 15.7944 33.4371 15.7944H33.4791C34.9919 15.7944 35.9794 14.6809 35.9794 12.958V7.26412H39.11V18.1896H36.6307C36.4626 17.7694 36.3156 16.971 36.2945 16.4878C35.3491 17.6644 33.9204 18.4207 32.3025 18.4207H32.2395Z" fill="#101828"/>
<path d="M45.3545 18.4207C42.35 18.4207 40.1439 16.1306 40.1439 12.937V12.5168C40.1439 9.32316 42.35 7.03301 45.3545 7.03301H45.4806C46.8463 7.03301 48.0649 7.51625 48.9473 8.35667V3.06201H52.0779V18.1896H49.5986C49.4516 17.8324 49.3465 17.2441 49.2835 16.7819C48.359 17.8114 47.0144 18.4207 45.4806 18.4207H45.3545ZM46.0899 16.0886H46.258C47.8128 16.0886 48.9473 14.7439 48.9473 12.8319V12.6218C48.9473 10.7099 47.8338 9.36518 46.258 9.36518H46.0899C44.5351 9.36518 43.4005 10.7099 43.4005 12.6218V12.8319C43.4005 14.7439 44.5351 16.0886 46.0899 16.0886Z" fill="#101828"/>
<path d="M60.5094 18.4628C56.1602 18.4628 53.1346 15.2691 53.1346 10.899V10.7939C53.1346 6.44471 56.2022 3.2301 60.4673 3.2301H60.4883C63.0306 3.2301 65.0686 4.4277 66.4764 6.4237L64.0601 8.23061C63.1987 6.88593 62.1272 6.17158 60.6564 6.17158C58.1352 6.17158 56.5384 8.06253 56.5384 10.7939V10.899C56.5384 13.6093 58.1352 15.4793 60.6144 15.4793C62.1272 15.4793 63.3458 14.7649 64.1442 13.4622L66.5184 15.2902C65.2788 17.2231 63.0937 18.4628 60.5304 18.4628H60.5094Z" fill="#101828"/>
<path d="M72.173 18.4207C68.7483 18.4207 66.248 16.0886 66.248 12.937V12.5168C66.248 9.36518 68.7483 7.03301 72.173 7.03301H72.3621C75.7868 7.03301 78.2871 9.36518 78.2871 12.5168V12.937C78.2871 16.0886 75.7868 18.4207 72.3621 18.4207H72.173ZM72.194 16.0886H72.3411C73.8959 16.0886 75.0304 14.7439 75.0304 12.8319V12.6218C75.0304 10.7099 73.8959 9.36518 72.3411 9.36518H72.194C70.6392 9.36518 69.4836 10.7099 69.4836 12.6218V12.8319C69.4836 14.7439 70.6392 16.0886 72.194 16.0886Z" fill="#101828"/>
<path d="M81.96 18.1896L78.136 7.26412H81.4137L83.8089 15.4582H84.019L86.4352 7.26412H89.6918L85.8469 18.1896H81.96Z" fill="#101828"/>
<path d="M90.1289 18.1896V7.26412H92.6292C92.7763 7.68434 92.9023 8.37768 92.9444 8.83992C93.7848 7.85242 95.0454 7.26412 96.5792 7.26412H96.8523V10.2056C96.6422 10.1426 96.3271 10.0585 96.0329 10.0585C94.226 10.0585 93.2595 10.983 93.2595 12.4117V18.1896H90.1289Z" fill="#101828"/>
<path d="M98.7589 18.4628C97.6873 18.4628 96.8259 17.6644 96.8259 16.6769V16.5508C96.8259 15.6053 97.6873 14.8069 98.7589 14.8069C99.8094 14.8069 100.692 15.6053 100.692 16.5508V16.6769C100.692 17.6644 99.8094 18.4628 98.7589 18.4628Z" fill="#101828"/>
</svg>
