<svg width="538" height="506" viewBox="0 0 538 506" fill="none" xmlns="http://www.w3.org/2000/svg">
<g filter="url(#filter0_d_59648_42436)">
<g filter="url(#filter1_d_59648_42436)">
<rect x="14" y="13" width="510" height="477.574" rx="20" fill="white"/>
</g>
<circle cx="85.855" cy="429.534" r="7.10791" fill="url(#paint0_linear_59648_42436)"/>
<path d="M102.372 434.534V422.898H103.781V433.284H109.19V434.534H102.372ZM114.736 434.716C113.948 434.716 113.256 434.528 112.662 434.153C112.071 433.778 111.609 433.254 111.275 432.579C110.946 431.905 110.781 431.117 110.781 430.216C110.781 429.307 110.946 428.513 111.275 427.835C111.609 427.157 112.071 426.631 112.662 426.256C113.256 425.881 113.948 425.693 114.736 425.693C115.523 425.693 116.213 425.881 116.804 426.256C117.398 426.631 117.861 427.157 118.19 427.835C118.523 428.513 118.69 429.307 118.69 430.216C118.69 431.117 118.523 431.905 118.19 432.579C117.861 433.254 117.398 433.778 116.804 434.153C116.213 434.528 115.523 434.716 114.736 434.716ZM114.736 433.511C115.334 433.511 115.827 433.358 116.213 433.051C116.599 432.744 116.885 432.341 117.071 431.841C117.256 431.341 117.349 430.799 117.349 430.216C117.349 429.632 117.256 429.089 117.071 428.585C116.885 428.081 116.599 427.674 116.213 427.363C115.827 427.053 115.334 426.898 114.736 426.898C114.137 426.898 113.645 427.053 113.258 427.363C112.872 427.674 112.586 428.081 112.4 428.585C112.215 429.089 112.122 429.632 112.122 430.216C112.122 430.799 112.215 431.341 112.4 431.841C112.586 432.341 112.872 432.744 113.258 433.051C113.645 433.358 114.137 433.511 114.736 433.511ZM122.417 434.534L119.758 425.807H121.167L123.054 432.488H123.145L125.008 425.807H126.44L128.281 432.466H128.372L130.258 425.807H131.667L129.008 434.534H127.69L125.781 427.829H125.645L123.736 434.534H122.417Z" fill="#9291A5"/>
<path d="M157.923 434.693C157.211 434.693 156.571 434.557 156.003 434.284C155.438 434.007 154.988 433.629 154.65 433.148C154.313 432.667 154.133 432.117 154.111 431.5H155.815C155.857 432 156.078 432.411 156.48 432.733C156.881 433.055 157.363 433.216 157.923 433.216C158.37 433.216 158.766 433.113 159.111 432.909C159.459 432.701 159.732 432.415 159.929 432.051C160.13 431.687 160.23 431.273 160.23 430.807C160.23 430.333 160.128 429.911 159.923 429.54C159.719 429.168 159.436 428.877 159.077 428.665C158.72 428.452 158.311 428.345 157.849 428.341C157.497 428.341 157.143 428.401 156.787 428.523C156.431 428.644 156.143 428.803 155.923 429L154.315 428.761L154.969 422.898H161.366V424.403H156.429L156.059 427.659H156.128C156.355 427.439 156.656 427.256 157.031 427.108C157.41 426.96 157.815 426.886 158.247 426.886C158.955 426.886 159.586 427.055 160.139 427.392C160.696 427.729 161.133 428.189 161.452 428.773C161.773 429.352 161.933 430.019 161.929 430.773C161.933 431.526 161.762 432.199 161.417 432.79C161.077 433.381 160.603 433.846 159.997 434.187C159.395 434.524 158.703 434.693 157.923 434.693ZM168.419 422.898V434.534H166.657V424.659H166.589L163.805 426.477V424.795L166.709 422.898H168.419ZM175.618 434.693C174.837 434.693 174.14 434.559 173.527 434.29C172.917 434.021 172.434 433.648 172.078 433.17C171.726 432.689 171.536 432.132 171.51 431.5H173.294C173.317 431.845 173.432 432.144 173.64 432.398C173.853 432.648 174.129 432.841 174.47 432.977C174.811 433.113 175.19 433.182 175.606 433.182C176.065 433.182 176.47 433.102 176.822 432.943C177.178 432.784 177.457 432.562 177.657 432.278C177.858 431.99 177.959 431.659 177.959 431.284C177.959 430.894 177.858 430.551 177.657 430.256C177.461 429.956 177.171 429.721 176.788 429.551C176.409 429.381 175.951 429.295 175.413 429.295H174.43V427.863H175.413C175.845 427.863 176.224 427.786 176.55 427.631C176.879 427.475 177.137 427.259 177.322 426.983C177.508 426.702 177.601 426.375 177.601 426C177.601 425.64 177.519 425.327 177.356 425.062C177.197 424.793 176.97 424.583 176.675 424.432C176.383 424.28 176.038 424.204 175.64 424.204C175.262 424.204 174.907 424.274 174.578 424.415C174.252 424.551 173.987 424.748 173.782 425.006C173.578 425.259 173.468 425.564 173.453 425.92H171.754C171.773 425.292 171.959 424.738 172.311 424.261C172.667 423.784 173.137 423.411 173.72 423.142C174.303 422.873 174.951 422.738 175.663 422.738C176.409 422.738 177.053 422.884 177.595 423.176C178.14 423.464 178.561 423.848 178.856 424.329C179.156 424.81 179.303 425.337 179.3 425.909C179.303 426.56 179.122 427.113 178.754 427.568C178.39 428.023 177.906 428.327 177.3 428.483V428.574C178.072 428.691 178.671 428.998 179.095 429.494C179.523 429.99 179.735 430.606 179.731 431.341C179.735 431.981 179.557 432.555 179.197 433.062C178.841 433.57 178.354 433.97 177.737 434.261C177.12 434.549 176.413 434.693 175.618 434.693Z" fill="#1E1B39"/>
<circle cx="219.929" cy="429.534" r="6.60791" fill="#F7F7FB" stroke="#9291A5"/>
<path d="M236.446 422.898H238.128L242.083 432.557H242.219L246.173 422.898H247.855V434.534H246.537V425.693H246.423L242.787 434.534H241.514L237.878 425.693H237.764V434.534H236.446V422.898ZM254.158 434.716C253.317 434.716 252.592 434.53 251.982 434.159C251.376 433.784 250.908 433.261 250.578 432.591C250.253 431.917 250.09 431.132 250.09 430.238C250.09 429.345 250.253 428.557 250.578 427.875C250.908 427.189 251.366 426.655 251.953 426.273C252.544 425.886 253.234 425.693 254.021 425.693C254.476 425.693 254.925 425.769 255.368 425.92C255.811 426.072 256.215 426.318 256.578 426.659C256.942 426.996 257.232 427.443 257.448 428C257.664 428.557 257.771 429.242 257.771 430.057V430.625H251.044V429.466H256.408C256.408 428.973 256.309 428.534 256.112 428.148C255.919 427.761 255.643 427.456 255.283 427.233C254.927 427.009 254.506 426.898 254.021 426.898C253.487 426.898 253.025 427.03 252.635 427.295C252.249 427.557 251.951 427.898 251.743 428.318C251.535 428.738 251.431 429.189 251.431 429.67V430.443C251.431 431.102 251.544 431.661 251.771 432.119C252.003 432.574 252.323 432.92 252.732 433.159C253.141 433.394 253.616 433.511 254.158 433.511C254.51 433.511 254.828 433.462 255.112 433.363C255.4 433.261 255.648 433.11 255.857 432.909C256.065 432.704 256.226 432.451 256.34 432.148L257.635 432.511C257.499 432.951 257.27 433.337 256.948 433.67C256.626 434 256.228 434.257 255.754 434.443C255.281 434.625 254.749 434.716 254.158 434.716ZM263.107 434.716C262.379 434.716 261.737 434.532 261.181 434.165C260.624 433.793 260.188 433.271 259.874 432.596C259.559 431.918 259.402 431.117 259.402 430.193C259.402 429.276 259.559 428.481 259.874 427.807C260.188 427.132 260.626 426.612 261.186 426.244C261.747 425.877 262.395 425.693 263.129 425.693C263.698 425.693 264.146 425.788 264.476 425.977C264.809 426.163 265.063 426.375 265.237 426.613C265.415 426.848 265.554 427.042 265.652 427.193H265.766V422.898H267.107V434.534H265.811V433.193H265.652C265.554 433.352 265.414 433.553 265.232 433.795C265.05 434.034 264.79 434.248 264.453 434.437C264.116 434.623 263.667 434.716 263.107 434.716ZM263.289 433.511C263.826 433.511 264.281 433.371 264.652 433.091C265.023 432.807 265.306 432.415 265.499 431.915C265.692 431.411 265.789 430.829 265.789 430.17C265.789 429.519 265.694 428.949 265.504 428.46C265.315 427.968 265.035 427.585 264.664 427.312C264.292 427.036 263.834 426.898 263.289 426.898C262.72 426.898 262.247 427.043 261.868 427.335C261.493 427.623 261.211 428.015 261.021 428.511C260.836 429.004 260.743 429.557 260.743 430.17C260.743 430.792 260.838 431.356 261.027 431.863C261.22 432.367 261.504 432.769 261.879 433.068C262.258 433.363 262.728 433.511 263.289 433.511ZM269.749 434.534V425.807H271.09V434.534H269.749ZM270.431 424.352C270.169 424.352 269.944 424.263 269.754 424.085C269.569 423.907 269.476 423.693 269.476 423.443C269.476 423.193 269.569 422.979 269.754 422.801C269.944 422.623 270.169 422.534 270.431 422.534C270.692 422.534 270.915 422.623 271.101 422.801C271.29 422.979 271.385 423.193 271.385 423.443C271.385 423.693 271.29 423.907 271.101 424.085C270.915 424.263 270.692 424.352 270.431 424.352ZM279.046 430.966V425.807H280.387V434.534H279.046V433.057H278.955C278.75 433.5 278.432 433.877 278 434.187C277.568 434.494 277.023 434.648 276.364 434.648C275.818 434.648 275.334 434.528 274.909 434.29C274.485 434.047 274.152 433.684 273.909 433.199C273.667 432.71 273.546 432.095 273.546 431.352V425.807H274.887V431.261C274.887 431.898 275.065 432.405 275.421 432.784C275.78 433.163 276.239 433.352 276.796 433.352C277.129 433.352 277.468 433.267 277.813 433.096C278.161 432.926 278.453 432.665 278.688 432.312C278.926 431.96 279.046 431.511 279.046 430.966ZM282.843 434.534V425.807H284.138V427.17H284.252C284.433 426.704 284.727 426.343 285.132 426.085C285.538 425.824 286.024 425.693 286.593 425.693C287.168 425.693 287.647 425.824 288.03 426.085C288.416 426.343 288.718 426.704 288.933 427.17H289.024C289.248 426.72 289.583 426.362 290.03 426.096C290.477 425.827 291.013 425.693 291.638 425.693C292.418 425.693 293.057 425.937 293.553 426.426C294.049 426.911 294.297 427.667 294.297 428.693V434.534H292.956V428.693C292.956 428.049 292.78 427.589 292.428 427.312C292.075 427.036 291.661 426.898 291.183 426.898C290.57 426.898 290.094 427.083 289.757 427.454C289.42 427.822 289.252 428.288 289.252 428.852V434.534H287.888V428.557C287.888 428.06 287.727 427.661 287.405 427.358C287.083 427.051 286.668 426.898 286.161 426.898C285.812 426.898 285.486 426.99 285.183 427.176C284.884 427.362 284.642 427.619 284.456 427.949C284.274 428.274 284.183 428.651 284.183 429.079V434.534H282.843Z" fill="#9291A5"/>
<path d="M300.548 434.534L305.628 424.488V424.403H299.753V422.898H307.446V424.454L302.384 434.534H300.548ZM308.24 432.261V430.841L313.269 422.898H314.388V424.988H313.678L310.081 430.682V430.773H316.973V432.261H308.24ZM313.757 434.534V431.829L313.769 431.182V422.898H315.433V434.534H313.757ZM323.212 422.898V434.534H321.45V424.659H321.382L318.598 426.477V424.795L321.502 422.898H323.212Z" fill="#1E1B39"/>
<circle cx="365.145" cy="429.534" r="7.10791" fill="#E0C6FD"/>
<path d="M381.662 434.534V422.898H383.071V428.079H389.276V422.898H390.685V434.534H389.276V429.329H383.071V434.534H381.662ZM393.324 434.534V425.807H394.665V434.534H393.324ZM394.006 424.352C393.744 424.352 393.519 424.263 393.33 424.085C393.144 423.907 393.051 423.693 393.051 423.443C393.051 423.193 393.144 422.979 393.33 422.801C393.519 422.623 393.744 422.534 394.006 422.534C394.267 422.534 394.491 422.623 394.676 422.801C394.866 422.979 394.96 423.193 394.96 423.443C394.96 423.693 394.866 423.907 394.676 424.085C394.491 424.263 394.267 424.352 394.006 424.352ZM400.644 437.988C399.996 437.988 399.439 437.905 398.973 437.738C398.507 437.576 398.119 437.36 397.808 437.091C397.502 436.826 397.257 436.542 397.075 436.238L398.144 435.488C398.265 435.648 398.418 435.829 398.604 436.034C398.789 436.242 399.043 436.422 399.365 436.574C399.691 436.729 400.117 436.807 400.644 436.807C401.348 436.807 401.93 436.636 402.388 436.295C402.846 435.954 403.075 435.42 403.075 434.693V432.92H402.962C402.863 433.079 402.723 433.276 402.541 433.511C402.363 433.742 402.106 433.949 401.769 434.131C401.435 434.309 400.984 434.398 400.416 434.398C399.712 434.398 399.079 434.231 398.519 433.898C397.962 433.564 397.52 433.079 397.195 432.443C396.873 431.807 396.712 431.034 396.712 430.125C396.712 429.231 396.869 428.452 397.183 427.79C397.498 427.123 397.935 426.608 398.496 426.244C399.056 425.877 399.704 425.693 400.439 425.693C401.007 425.693 401.458 425.788 401.791 425.977C402.128 426.163 402.386 426.375 402.564 426.613C402.746 426.848 402.886 427.042 402.984 427.193H403.121V425.807H404.416V434.784C404.416 435.534 404.246 436.144 403.905 436.613C403.568 437.087 403.113 437.434 402.541 437.653C401.973 437.877 401.341 437.988 400.644 437.988ZM400.598 433.193C401.136 433.193 401.591 433.07 401.962 432.824C402.333 432.577 402.615 432.223 402.808 431.761C403.002 431.299 403.098 430.746 403.098 430.102C403.098 429.473 403.003 428.918 402.814 428.437C402.625 427.956 402.344 427.579 401.973 427.307C401.602 427.034 401.144 426.898 400.598 426.898C400.03 426.898 399.556 427.042 399.178 427.329C398.803 427.617 398.52 428.004 398.331 428.488C398.145 428.973 398.053 429.511 398.053 430.102C398.053 430.708 398.147 431.244 398.337 431.71C398.53 432.172 398.814 432.536 399.189 432.801C399.568 433.062 400.037 433.193 400.598 433.193ZM408.212 429.284V434.534H406.871V422.898H408.212V427.17H408.325C408.53 426.72 408.837 426.362 409.246 426.096C409.659 425.827 410.208 425.693 410.894 425.693C411.488 425.693 412.009 425.812 412.456 426.051C412.903 426.286 413.25 426.648 413.496 427.136C413.746 427.621 413.871 428.238 413.871 428.988V434.534H412.53V429.079C412.53 428.386 412.35 427.85 411.99 427.471C411.634 427.089 411.14 426.898 410.507 426.898C410.068 426.898 409.674 426.99 409.325 427.176C408.981 427.362 408.708 427.632 408.507 427.988C408.31 428.345 408.212 428.776 408.212 429.284Z" fill="#9291A5"/>
<path d="M439.787 422.898V434.534H438.026V424.659H437.957L435.173 426.477V424.795L438.077 422.898H439.787ZM442.935 434.534V433.261L446.872 429.182C447.293 428.738 447.639 428.35 447.912 428.017C448.189 427.68 448.395 427.36 448.531 427.057C448.668 426.754 448.736 426.432 448.736 426.091C448.736 425.704 448.645 425.371 448.463 425.091C448.281 424.807 448.033 424.589 447.719 424.437C447.404 424.282 447.05 424.204 446.656 424.204C446.24 424.204 445.876 424.29 445.565 424.46C445.255 424.631 445.016 424.871 444.85 425.182C444.683 425.492 444.6 425.856 444.6 426.273H442.923C442.923 425.564 443.086 424.945 443.412 424.415C443.738 423.884 444.185 423.473 444.753 423.182C445.321 422.886 445.967 422.738 446.69 422.738C447.421 422.738 448.065 422.884 448.622 423.176C449.183 423.464 449.62 423.858 449.935 424.358C450.249 424.854 450.406 425.415 450.406 426.04C450.406 426.471 450.325 426.894 450.162 427.307C450.003 427.72 449.725 428.18 449.327 428.687C448.929 429.191 448.376 429.803 447.668 430.523L445.355 432.943V433.028H450.594V434.534H442.935ZM457.162 422.898V434.534H455.401V424.659H455.332L452.548 426.477V424.795L455.452 422.898H457.162Z" fill="#1E1B39"/>
<line x1="14" y1="387.034" x2="524" y2="387.034" stroke="#E5E5EF"/>
<mask id="mask0_59648_42436" style="mask-type:alpha" maskUnits="userSpaceOnUse" x="86" y="164" width="366" height="173">
<rect x="86.7363" y="164" width="364.528" height="172.816" fill="#D9D9D9"/>
</mask>
<g mask="url(#mask0_59648_42436)">
<path d="M96.7359 336.816C91.2131 336.816 86.7069 332.335 87.014 326.821C88.4838 300.432 95.7592 274.647 108.37 251.326C120.98 228.005 138.574 207.8 159.852 192.122C164.298 188.846 170.515 190.163 173.538 194.785L193.443 225.207C196.467 229.829 195.142 235.995 190.781 239.383C177.294 249.86 166.099 263.046 157.942 278.132C149.784 293.218 144.879 309.805 143.496 326.827C143.049 332.332 138.614 336.816 133.091 336.816H96.7359Z" fill="url(#paint1_linear_59648_42436)"/>
<path d="M171.75 193.032C194.243 178.413 219.723 169.015 246.322 165.526C272.92 162.038 299.962 164.547 325.464 172.871C350.966 181.195 374.282 195.122 393.7 213.631C413.118 232.14 428.147 254.761 437.684 279.834L397.544 295.102C390.285 276.02 378.848 258.804 364.069 244.718C349.291 230.632 331.547 220.033 312.138 213.698C292.73 207.363 272.15 205.453 251.907 208.108C231.664 210.763 212.272 217.916 195.154 229.042L171.75 193.032Z" fill="#F7F7FB"/>
<path d="M425.105 273.51C430.267 271.546 436.071 274.131 437.745 279.394C442.579 294.596 445.368 310.374 446.039 326.311C446.271 331.829 441.704 336.248 436.182 336.173L413.237 335.861C407.715 335.785 403.337 331.242 403.009 325.729C402.382 315.207 400.541 304.792 397.523 294.693C395.941 289.401 398.496 283.633 403.658 281.669L425.105 273.51Z" fill="#E0C6FD"/>
</g>
<path d="M227.916 310.939V342.939H221.15V317.361H220.963L213.635 321.955V315.955L221.557 310.939H227.916ZM241.1 338.564L240.928 340.283C240.792 341.658 240.532 343.028 240.146 344.392C239.771 345.767 239.376 347.012 238.959 348.127C238.553 349.241 238.225 350.116 237.975 350.752H233.662C233.818 350.137 234.032 349.278 234.303 348.174C234.574 347.08 234.829 345.851 235.068 344.486C235.308 343.121 235.459 341.731 235.521 340.314L235.6 338.564H241.1ZM257.92 343.377C255.587 343.377 253.508 342.976 251.686 342.174C249.873 341.361 248.441 340.246 247.389 338.83C246.347 337.403 245.811 335.757 245.779 333.892H252.592C252.633 334.674 252.889 335.361 253.357 335.955C253.837 336.538 254.472 336.991 255.264 337.314C256.055 337.637 256.946 337.799 257.936 337.799C258.967 337.799 259.878 337.616 260.67 337.252C261.462 336.887 262.081 336.382 262.529 335.736C262.977 335.09 263.201 334.345 263.201 333.502C263.201 332.647 262.962 331.892 262.482 331.236C262.014 330.569 261.337 330.049 260.451 329.674C259.576 329.299 258.535 329.111 257.326 329.111H254.342V324.142H257.326C258.347 324.142 259.248 323.965 260.029 323.611C260.821 323.257 261.436 322.767 261.873 322.142C262.311 321.507 262.529 320.767 262.529 319.924C262.529 319.121 262.337 318.418 261.951 317.814C261.576 317.2 261.045 316.72 260.357 316.377C259.68 316.033 258.889 315.861 257.982 315.861C257.066 315.861 256.227 316.028 255.467 316.361C254.706 316.684 254.097 317.147 253.639 317.752C253.18 318.356 252.936 319.064 252.904 319.877H246.42C246.451 318.033 246.977 316.408 247.998 315.002C249.019 313.595 250.394 312.496 252.123 311.705C253.863 310.903 255.826 310.502 258.014 310.502C260.222 310.502 262.154 310.903 263.811 311.705C265.467 312.507 266.753 313.59 267.67 314.955C268.597 316.309 269.055 317.83 269.045 319.517C269.055 321.309 268.498 322.804 267.373 324.002C266.258 325.2 264.805 325.96 263.014 326.283V326.533C265.368 326.835 267.16 327.653 268.389 328.986C269.628 330.309 270.243 331.965 270.232 333.955C270.243 335.778 269.717 337.397 268.654 338.814C267.602 340.231 266.149 341.345 264.295 342.158C262.441 342.97 260.316 343.377 257.92 343.377ZM276.361 342.939L289.627 316.689V316.47H274.174V310.939H296.627V316.549L283.346 342.939H276.361ZM312.521 343.377C310.313 343.377 308.344 342.97 306.615 342.158C304.896 341.345 303.532 340.226 302.521 338.799C301.511 337.371 300.985 335.736 300.943 333.892H307.506C307.579 335.132 308.1 336.137 309.068 336.908C310.037 337.679 311.188 338.064 312.521 338.064C313.584 338.064 314.521 337.83 315.334 337.361C316.157 336.882 316.798 336.22 317.256 335.377C317.725 334.522 317.959 333.543 317.959 332.439C317.959 331.314 317.719 330.325 317.24 329.47C316.771 328.616 316.12 327.95 315.287 327.47C314.454 326.991 313.501 326.746 312.428 326.736C311.49 326.736 310.579 326.929 309.693 327.314C308.818 327.7 308.136 328.226 307.646 328.892L301.631 327.814L303.146 310.939H322.709V316.47H308.725L307.896 324.486H308.084C308.646 323.694 309.495 323.038 310.631 322.517C311.766 321.996 313.037 321.736 314.443 321.736C316.37 321.736 318.089 322.189 319.6 323.095C321.11 324.002 322.303 325.246 323.178 326.83C324.053 328.403 324.485 330.215 324.475 332.267C324.485 334.424 323.985 336.34 322.975 338.017C321.975 339.684 320.574 340.996 318.771 341.955C316.98 342.903 314.896 343.377 312.521 343.377Z" fill="#1E1B39"/>
<path d="M220.747 280.254V278.848H230.565V280.254H226.449V291.939H224.864V280.254H220.747ZM235.372 292.144C234.486 292.144 233.708 291.933 233.039 291.511C232.374 291.089 231.854 290.499 231.479 289.74C231.109 288.982 230.923 288.095 230.923 287.081C230.923 286.058 231.109 285.166 231.479 284.403C231.854 283.64 232.374 283.048 233.039 282.626C233.708 282.204 234.486 281.993 235.372 281.993C236.259 281.993 237.034 282.204 237.699 282.626C238.368 283.048 238.888 283.64 239.259 284.403C239.634 285.166 239.821 286.058 239.821 287.081C239.821 288.095 239.634 288.982 239.259 289.74C238.888 290.499 238.368 291.089 237.699 291.511C237.034 291.933 236.259 292.144 235.372 292.144ZM235.372 290.788C236.046 290.788 236.6 290.616 237.034 290.271C237.469 289.925 237.791 289.472 237.999 288.909C238.208 288.347 238.313 287.737 238.313 287.081C238.313 286.425 238.208 285.813 237.999 285.246C237.791 284.68 237.469 284.222 237.034 283.872C236.6 283.523 236.046 283.348 235.372 283.348C234.699 283.348 234.145 283.523 233.71 283.872C233.276 284.222 232.954 284.68 232.745 285.246C232.536 285.813 232.432 286.425 232.432 287.081C232.432 287.737 232.536 288.347 232.745 288.909C232.954 289.472 233.276 289.925 233.71 290.271C234.145 290.616 234.699 290.788 235.372 290.788ZM246.394 282.121V283.399H241.306V282.121H246.394ZM242.789 279.769H244.297V289.126C244.297 289.553 244.359 289.872 244.483 290.085C244.61 290.294 244.772 290.435 244.968 290.507C245.169 290.575 245.38 290.609 245.601 290.609C245.767 290.609 245.904 290.601 246.01 290.584C246.117 290.563 246.202 290.545 246.266 290.533L246.573 291.888C246.47 291.926 246.328 291.965 246.144 292.003C245.961 292.045 245.729 292.067 245.448 292.067C245.022 292.067 244.604 291.975 244.195 291.792C243.79 291.609 243.453 291.33 243.185 290.955C242.921 290.58 242.789 290.107 242.789 289.536V279.769ZM251.552 292.169C250.93 292.169 250.365 292.052 249.858 291.818C249.351 291.579 248.948 291.236 248.65 290.788C248.352 290.337 248.203 289.791 248.203 289.152C248.203 288.59 248.313 288.134 248.535 287.784C248.757 287.43 249.053 287.153 249.424 286.953C249.794 286.753 250.203 286.604 250.651 286.506C251.103 286.403 251.556 286.322 252.012 286.263C252.609 286.186 253.093 286.129 253.463 286.09C253.838 286.048 254.111 285.977 254.282 285.879C254.456 285.781 254.544 285.611 254.544 285.368V285.317C254.544 284.686 254.371 284.196 254.026 283.847C253.685 283.497 253.167 283.322 252.473 283.322C251.752 283.322 251.188 283.48 250.779 283.795C250.37 284.111 250.082 284.447 249.916 284.805L248.484 284.294C248.74 283.697 249.081 283.233 249.507 282.901C249.937 282.564 250.406 282.33 250.913 282.197C251.424 282.061 251.927 281.993 252.421 281.993C252.737 281.993 253.099 282.031 253.508 282.108C253.921 282.18 254.32 282.332 254.703 282.562C255.091 282.792 255.413 283.139 255.669 283.604C255.924 284.068 256.052 284.69 256.052 285.47V291.939H254.544V290.609H254.467C254.365 290.822 254.194 291.05 253.956 291.293C253.717 291.536 253.399 291.743 253.003 291.913C252.607 292.084 252.123 292.169 251.552 292.169ZM251.782 290.814C252.379 290.814 252.882 290.697 253.291 290.462C253.704 290.228 254.015 289.925 254.224 289.555C254.437 289.184 254.544 288.794 254.544 288.385V287.004C254.48 287.081 254.339 287.151 254.122 287.215C253.909 287.275 253.661 287.328 253.38 287.375C253.103 287.418 252.833 287.456 252.568 287.49C252.309 287.52 252.098 287.545 251.936 287.567C251.544 287.618 251.177 287.701 250.836 287.816C250.5 287.927 250.227 288.095 250.018 288.321C249.813 288.543 249.711 288.845 249.711 289.229C249.711 289.753 249.905 290.149 250.293 290.418C250.685 290.682 251.181 290.814 251.782 290.814ZM260.314 278.848V291.939H258.805V278.848H260.314ZM278.878 282.939H277.293C277.199 282.483 277.035 282.082 276.801 281.737C276.571 281.392 276.289 281.102 275.957 280.868C275.629 280.629 275.264 280.45 274.864 280.331C274.463 280.212 274.046 280.152 273.611 280.152C272.818 280.152 272.1 280.352 271.457 280.753C270.818 281.153 270.309 281.744 269.929 282.523C269.554 283.303 269.367 284.26 269.367 285.394C269.367 286.527 269.554 287.484 269.929 288.264C270.309 289.043 270.818 289.634 271.457 290.034C272.1 290.435 272.818 290.635 273.611 290.635C274.046 290.635 274.463 290.575 274.864 290.456C275.264 290.337 275.629 290.16 275.957 289.925C276.289 289.687 276.571 289.395 276.801 289.05C277.035 288.7 277.199 288.3 277.293 287.848H278.878C278.759 288.517 278.541 289.116 278.226 289.644C277.911 290.173 277.519 290.622 277.05 290.993C276.581 291.359 276.055 291.639 275.471 291.83C274.892 292.022 274.272 292.118 273.611 292.118C272.495 292.118 271.502 291.845 270.632 291.3C269.763 290.754 269.079 289.979 268.581 288.973C268.082 287.967 267.833 286.774 267.833 285.394C267.833 284.013 268.082 282.82 268.581 281.814C269.079 280.808 269.763 280.033 270.632 279.487C271.502 278.942 272.495 278.669 273.611 278.669C274.272 278.669 274.892 278.765 275.471 278.957C276.055 279.148 276.581 279.43 277.05 279.8C277.519 280.167 277.911 280.614 278.226 281.143C278.541 281.667 278.759 282.266 278.878 282.939ZM285.224 292.144C284.337 292.144 283.56 291.933 282.891 291.511C282.226 291.089 281.706 290.499 281.331 289.74C280.96 288.982 280.775 288.095 280.775 287.081C280.775 286.058 280.96 285.166 281.331 284.403C281.706 283.64 282.226 283.048 282.891 282.626C283.56 282.204 284.337 281.993 285.224 281.993C286.11 281.993 286.886 282.204 287.551 282.626C288.22 283.048 288.739 283.64 289.11 284.403C289.485 285.166 289.673 286.058 289.673 287.081C289.673 288.095 289.485 288.982 289.11 289.74C288.739 290.499 288.22 291.089 287.551 291.511C286.886 291.933 286.11 292.144 285.224 292.144ZM285.224 290.788C285.897 290.788 286.451 290.616 286.886 290.271C287.32 289.925 287.642 289.472 287.851 288.909C288.06 288.347 288.164 287.737 288.164 287.081C288.164 286.425 288.06 285.813 287.851 285.246C287.642 284.68 287.32 284.222 286.886 283.872C286.451 283.523 285.897 283.348 285.224 283.348C284.551 283.348 283.997 283.523 283.562 283.872C283.127 284.222 282.805 284.68 282.597 285.246C282.388 285.813 282.283 286.425 282.283 287.081C282.283 287.737 282.388 288.347 282.597 288.909C282.805 289.472 283.127 289.925 283.562 290.271C283.997 290.616 284.551 290.788 285.224 290.788ZM298.163 287.925V282.121H299.671V291.939H298.163V290.277H298.061C297.831 290.776 297.473 291.2 296.987 291.549C296.501 291.894 295.887 292.067 295.146 292.067C294.532 292.067 293.987 291.933 293.509 291.664C293.032 291.391 292.657 290.982 292.384 290.437C292.112 289.887 291.975 289.195 291.975 288.359V282.121H293.484V288.257C293.484 288.973 293.684 289.544 294.085 289.97C294.49 290.396 295.005 290.609 295.632 290.609C296.007 290.609 296.388 290.514 296.776 290.322C297.168 290.13 297.496 289.836 297.76 289.44C298.029 289.043 298.163 288.538 298.163 287.925ZM303.943 286.033V291.939H302.434V282.121H303.892V283.655H304.02C304.25 283.156 304.599 282.756 305.068 282.453C305.537 282.146 306.142 281.993 306.883 281.993C307.548 281.993 308.13 282.129 308.628 282.402C309.127 282.67 309.515 283.08 309.792 283.629C310.069 284.175 310.207 284.865 310.207 285.7V291.939H308.699V285.803C308.699 285.031 308.498 284.43 308.098 284C307.697 283.565 307.147 283.348 306.449 283.348C305.967 283.348 305.537 283.452 305.157 283.661C304.782 283.87 304.486 284.175 304.269 284.575C304.052 284.976 303.943 285.462 303.943 286.033ZM317.234 282.121V283.399H312.146V282.121H317.234ZM313.628 279.769H315.137V289.126C315.137 289.553 315.199 289.872 315.322 290.085C315.45 290.294 315.612 290.435 315.808 290.507C316.008 290.575 316.219 290.609 316.441 290.609C316.607 290.609 316.744 290.601 316.85 290.584C316.957 290.563 317.042 290.545 317.106 290.533L317.413 291.888C317.31 291.926 317.168 291.965 316.984 292.003C316.801 292.045 316.569 292.067 316.288 292.067C315.861 292.067 315.444 291.975 315.035 291.792C314.63 291.609 314.293 291.33 314.025 290.955C313.761 290.58 313.628 290.107 313.628 289.536V279.769Z" fill="#615E83"/>
<line x1="47.0898" y1="118.5" x2="490.64" y2="118.5" stroke="#E5E5EF"/>
<path d="M48.4805 91V75H59.0742V77.7891H51.8633V81.6016H58.3711V84.3906H51.8633V91H48.4805ZM64.6152 75V91H61.2871V75H64.6152ZM70.7031 91.2266C69.9375 91.2266 69.2552 91.0938 68.6563 90.8281C68.0573 90.5573 67.5833 90.1589 67.2344 89.6328C66.8906 89.1016 66.7188 88.4401 66.7188 87.6484C66.7188 86.9818 66.8411 86.4219 67.0859 85.9687C67.3307 85.5156 67.6641 85.151 68.0859 84.875C68.5078 84.599 68.987 84.3906 69.5234 84.25C70.0651 84.1094 70.6328 84.0104 71.2266 83.9531C71.9245 83.8802 72.487 83.8125 72.9141 83.75C73.3411 83.6823 73.651 83.5833 73.8438 83.4531C74.0365 83.3229 74.1328 83.1302 74.1328 82.875V82.8281C74.1328 82.3333 73.9766 81.9505 73.6641 81.6797C73.3568 81.4089 72.9193 81.2734 72.3516 81.2734C71.7526 81.2734 71.276 81.4062 70.9219 81.6719C70.5677 81.9323 70.3333 82.2604 70.2188 82.6562L67.1406 82.4062C67.2969 81.6771 67.6042 81.0469 68.0625 80.5156C68.5208 79.9792 69.112 79.5677 69.8359 79.2812C70.5651 78.9896 71.4089 78.8438 72.3672 78.8438C73.0339 78.8438 73.6719 78.9219 74.2813 79.0781C74.8958 79.2344 75.4401 79.4766 75.9141 79.8047C76.3932 80.1328 76.7708 80.5547 77.0469 81.0703C77.3229 81.5807 77.4609 82.1927 77.4609 82.9062V91H74.3047V89.3359H74.2109C74.0182 89.7109 73.7604 90.0417 73.4375 90.3281C73.1146 90.6094 72.7266 90.8307 72.2734 90.9922C71.8203 91.1484 71.2969 91.2266 70.7031 91.2266ZM71.6563 88.9297C72.1458 88.9297 72.5781 88.8333 72.9531 88.6406C73.3281 88.4427 73.6224 88.1771 73.8359 87.8438C74.0495 87.5104 74.1563 87.1328 74.1563 86.7109V85.4375C74.0521 85.5052 73.9089 85.5677 73.7266 85.625C73.5495 85.6771 73.349 85.7266 73.125 85.7734C72.901 85.8151 72.6771 85.8542 72.4531 85.8906C72.2292 85.9219 72.026 85.9505 71.8438 85.9766C71.4531 86.0339 71.112 86.125 70.8203 86.25C70.5286 86.375 70.3021 86.5443 70.1406 86.7578C69.9792 86.9661 69.8984 87.2266 69.8984 87.5391C69.8984 87.9922 70.0625 88.3385 70.3906 88.5781C70.724 88.8125 71.1458 88.9297 71.6563 88.9297ZM85.4492 95.75C84.3711 95.75 83.4466 95.6016 82.6758 95.3047C81.9102 95.013 81.3008 94.6146 80.8477 94.1094C80.3945 93.6042 80.1003 93.0365 79.9648 92.4062L83.043 91.9922C83.1367 92.2318 83.2852 92.4557 83.4883 92.6641C83.6914 92.8724 83.9596 93.0391 84.293 93.1641C84.6315 93.2943 85.043 93.3594 85.5273 93.3594C86.2513 93.3594 86.8477 93.1823 87.3164 92.8281C87.7904 92.4792 88.0273 91.8932 88.0273 91.0703V88.875H87.8867C87.7409 89.2083 87.5221 89.5234 87.2305 89.8203C86.9388 90.1172 86.5638 90.3594 86.1055 90.5469C85.6471 90.7344 85.1003 90.8281 84.4648 90.8281C83.5638 90.8281 82.7435 90.6198 82.0039 90.2031C81.2695 89.7812 80.6836 89.138 80.2461 88.2734C79.8138 87.4036 79.5977 86.3047 79.5977 84.9766C79.5977 83.6172 79.819 82.4818 80.2617 81.5703C80.7044 80.6589 81.293 79.9766 82.0273 79.5234C82.7669 79.0703 83.5768 78.8438 84.457 78.8438C85.1289 78.8438 85.6914 78.9583 86.1445 79.1875C86.5977 79.4115 86.9622 79.6927 87.2383 80.0312C87.5195 80.3646 87.7357 80.6927 87.8867 81.0156H88.0117V79H91.3164V91.1172C91.3164 92.138 91.0664 92.9922 90.5664 93.6797C90.0664 94.3672 89.3737 94.8828 88.4883 95.2266C87.6081 95.5755 86.5951 95.75 85.4492 95.75ZM85.5195 88.3281C86.056 88.3281 86.5091 88.1953 86.8789 87.9297C87.2539 87.6589 87.5404 87.2734 87.7383 86.7734C87.9414 86.2682 88.043 85.6641 88.043 84.9609C88.043 84.2578 87.944 83.6484 87.7461 83.1328C87.5482 82.612 87.2617 82.2083 86.8867 81.9219C86.5117 81.6354 86.056 81.4922 85.5195 81.4922C84.9727 81.4922 84.5117 81.6406 84.1367 81.9375C83.7617 82.2292 83.4779 82.6354 83.2852 83.1562C83.0924 83.6771 82.9961 84.2786 82.9961 84.9609C82.9961 85.6536 83.0924 86.2526 83.2852 86.7578C83.4831 87.2578 83.7669 87.6458 84.1367 87.9219C84.5117 88.1927 84.9727 88.3281 85.5195 88.3281ZM99.3711 95.75C98.293 95.75 97.3685 95.6016 96.5977 95.3047C95.832 95.013 95.2227 94.6146 94.7695 94.1094C94.3164 93.6042 94.0221 93.0365 93.8867 92.4062L96.9648 91.9922C97.0586 92.2318 97.207 92.4557 97.4102 92.6641C97.6133 92.8724 97.8815 93.0391 98.2148 93.1641C98.5534 93.2943 98.9648 93.3594 99.4492 93.3594C100.173 93.3594 100.77 93.1823 101.238 92.8281C101.712 92.4792 101.949 91.8932 101.949 91.0703V88.875H101.809C101.663 89.2083 101.444 89.5234 101.152 89.8203C100.861 90.1172 100.486 90.3594 100.027 90.5469C99.569 90.7344 99.0221 90.8281 98.3867 90.8281C97.4857 90.8281 96.6654 90.6198 95.9258 90.2031C95.1914 89.7812 94.6055 89.138 94.168 88.2734C93.7357 87.4036 93.5195 86.3047 93.5195 84.9766C93.5195 83.6172 93.7409 82.4818 94.1836 81.5703C94.6263 80.6589 95.2148 79.9766 95.9492 79.5234C96.6888 79.0703 97.4987 78.8438 98.3789 78.8438C99.0508 78.8438 99.6133 78.9583 100.066 79.1875C100.52 79.4115 100.884 79.6927 101.16 80.0312C101.441 80.3646 101.658 80.6927 101.809 81.0156H101.934V79H105.238V91.1172C105.238 92.138 104.988 92.9922 104.488 93.6797C103.988 94.3672 103.296 94.8828 102.41 95.2266C101.53 95.5755 100.517 95.75 99.3711 95.75ZM99.4414 88.3281C99.9779 88.3281 100.431 88.1953 100.801 87.9297C101.176 87.6589 101.462 87.2734 101.66 86.7734C101.863 86.2682 101.965 85.6641 101.965 84.9609C101.965 84.2578 101.866 83.6484 101.668 83.1328C101.47 82.612 101.184 82.2083 100.809 81.9219C100.434 81.6354 99.9779 81.4922 99.4414 81.4922C98.8945 81.4922 98.4336 81.6406 98.0586 81.9375C97.6836 82.2292 97.3997 82.6354 97.207 83.1562C97.0143 83.6771 96.918 84.2786 96.918 84.9609C96.918 85.6536 97.0143 86.2526 97.207 86.7578C97.4049 87.2578 97.6888 87.6458 98.0586 87.9219C98.4336 88.1927 98.8945 88.3281 99.4414 88.3281ZM113.355 91.2344C112.121 91.2344 111.059 90.9844 110.168 90.4844C109.283 89.9792 108.6 89.2656 108.121 88.3437C107.642 87.4167 107.402 86.3203 107.402 85.0547C107.402 83.8203 107.642 82.737 108.121 81.8047C108.6 80.8724 109.275 80.1458 110.145 79.625C111.02 79.1042 112.046 78.8438 113.223 78.8438C114.014 78.8438 114.751 78.9714 115.434 79.2266C116.121 79.4766 116.72 79.8542 117.23 80.3594C117.746 80.8646 118.147 81.5 118.434 82.2656C118.72 83.026 118.863 83.9167 118.863 84.9375V85.8516H108.73V83.7891H115.73C115.73 83.3099 115.626 82.8854 115.418 82.5156C115.21 82.1458 114.921 81.8568 114.551 81.6484C114.186 81.4349 113.762 81.3281 113.277 81.3281C112.772 81.3281 112.324 81.4453 111.934 81.6797C111.548 81.9089 111.246 82.2187 111.027 82.6094C110.809 82.9948 110.697 83.4245 110.691 83.8984V85.8594C110.691 86.4531 110.801 86.9661 111.02 87.3984C111.243 87.8307 111.559 88.1641 111.965 88.3984C112.371 88.6328 112.853 88.75 113.41 88.75C113.78 88.75 114.118 88.6979 114.426 88.5938C114.733 88.4896 114.996 88.3333 115.215 88.125C115.434 87.9167 115.6 87.6615 115.715 87.3594L118.793 87.5625C118.637 88.3021 118.316 88.9479 117.832 89.5C117.353 90.0469 116.733 90.474 115.973 90.7813C115.217 91.0833 114.345 91.2344 113.355 91.2344ZM125.457 91.1953C124.546 91.1953 123.72 90.9609 122.98 90.4922C122.246 90.0182 121.663 89.3229 121.23 88.4062C120.803 87.4844 120.59 86.3542 120.59 85.0156C120.59 83.6406 120.811 82.4974 121.254 81.5859C121.697 80.6693 122.285 79.9844 123.02 79.5313C123.759 79.0729 124.569 78.8438 125.449 78.8438C126.121 78.8438 126.681 78.9583 127.129 79.1875C127.582 79.4115 127.947 79.6927 128.223 80.0312C128.504 80.3646 128.717 80.6927 128.863 81.0156H128.965V75H132.285V91H129.004V89.0781H128.863C128.707 89.4115 128.486 89.7422 128.199 90.0703C127.918 90.3932 127.551 90.6615 127.098 90.875C126.65 91.0885 126.103 91.1953 125.457 91.1953ZM126.512 88.5469C127.048 88.5469 127.501 88.401 127.871 88.1094C128.246 87.8125 128.533 87.3984 128.73 86.8672C128.934 86.3359 129.035 85.7135 129.035 85C129.035 84.2865 128.936 83.6667 128.738 83.1406C128.54 82.6146 128.254 82.2083 127.879 81.9219C127.504 81.6354 127.048 81.4922 126.512 81.4922C125.965 81.4922 125.504 81.6406 125.129 81.9375C124.754 82.2344 124.47 82.6458 124.277 83.1719C124.085 83.6979 123.988 84.3073 123.988 85C123.988 85.6979 124.085 86.3151 124.277 86.8516C124.475 87.3828 124.759 87.7995 125.129 88.1016C125.504 88.3984 125.965 88.5469 126.512 88.5469ZM139.566 77.7891V75H152.707V77.7891H147.809V91H144.465V77.7891H139.566ZM153.563 91V79H156.789V81.0937H156.914C157.133 80.349 157.5 79.7865 158.016 79.4063C158.531 79.0208 159.125 78.8281 159.797 78.8281C159.964 78.8281 160.143 78.8385 160.336 78.8594C160.529 78.8802 160.698 78.9089 160.844 78.9453V81.8984C160.688 81.8516 160.471 81.8099 160.195 81.7734C159.919 81.737 159.667 81.7188 159.438 81.7188C158.948 81.7188 158.51 81.8255 158.125 82.0391C157.745 82.2474 157.443 82.5391 157.219 82.9141C157 83.2891 156.891 83.7214 156.891 84.2109V91H153.563ZM165.643 91.2266C164.877 91.2266 164.195 91.0938 163.596 90.8281C162.997 90.5573 162.523 90.1589 162.174 89.6328C161.83 89.1016 161.658 88.4401 161.658 87.6484C161.658 86.9818 161.781 86.4219 162.025 85.9687C162.27 85.5156 162.604 85.151 163.025 84.875C163.447 84.599 163.926 84.3906 164.463 84.25C165.005 84.1094 165.572 84.0104 166.166 83.9531C166.864 83.8802 167.426 83.8125 167.854 83.75C168.281 83.6823 168.59 83.5833 168.783 83.4531C168.976 83.3229 169.072 83.1302 169.072 82.875V82.8281C169.072 82.3333 168.916 81.9505 168.604 81.6797C168.296 81.4089 167.859 81.2734 167.291 81.2734C166.692 81.2734 166.215 81.4062 165.861 81.6719C165.507 81.9323 165.273 82.2604 165.158 82.6562L162.08 82.4062C162.236 81.6771 162.544 81.0469 163.002 80.5156C163.46 79.9792 164.051 79.5677 164.775 79.2812C165.505 78.9896 166.348 78.8438 167.307 78.8438C167.973 78.8438 168.611 78.9219 169.221 79.0781C169.835 79.2344 170.38 79.4766 170.854 79.8047C171.333 80.1328 171.71 80.5547 171.986 81.0703C172.262 81.5807 172.4 82.1927 172.4 82.9062V91H169.244V89.3359H169.15C168.958 89.7109 168.7 90.0417 168.377 90.3281C168.054 90.6094 167.666 90.8307 167.213 90.9922C166.76 91.1484 166.236 91.2266 165.643 91.2266ZM166.596 88.9297C167.085 88.9297 167.518 88.8333 167.893 88.6406C168.268 88.4427 168.562 88.1771 168.775 87.8438C168.989 87.5104 169.096 87.1328 169.096 86.7109V85.4375C168.992 85.5052 168.848 85.5677 168.666 85.625C168.489 85.6771 168.288 85.7266 168.064 85.7734C167.84 85.8151 167.617 85.8542 167.393 85.8906C167.169 85.9219 166.965 85.9505 166.783 85.9766C166.393 86.0339 166.051 86.125 165.76 86.25C165.468 86.375 165.242 86.5443 165.08 86.7578C164.919 86.9661 164.838 87.2266 164.838 87.5391C164.838 87.9922 165.002 88.3385 165.33 88.5781C165.663 88.8125 166.085 88.9297 166.596 88.9297ZM178.311 84.0625V91H174.982V79H178.154V81.1172H178.295C178.561 80.4193 179.006 79.8672 179.631 79.4609C180.256 79.0495 181.014 78.8438 181.904 78.8438C182.738 78.8438 183.464 79.026 184.084 79.3906C184.704 79.7552 185.186 80.276 185.529 80.9531C185.873 81.625 186.045 82.4271 186.045 83.3594V91H182.717V83.9531C182.722 83.2187 182.535 82.6458 182.154 82.2344C181.774 81.8177 181.251 81.6094 180.584 81.6094C180.136 81.6094 179.74 81.7057 179.396 81.8984C179.058 82.0911 178.792 82.3724 178.6 82.7422C178.412 83.1068 178.316 83.5469 178.311 84.0625ZM198.652 82.4219L195.605 82.6094C195.553 82.349 195.441 82.1146 195.27 81.9062C195.098 81.6927 194.871 81.5234 194.59 81.3984C194.314 81.2682 193.983 81.2031 193.598 81.2031C193.082 81.2031 192.647 81.3125 192.293 81.5312C191.939 81.7448 191.762 82.0312 191.762 82.3906C191.762 82.6771 191.876 82.9193 192.105 83.1172C192.335 83.3151 192.728 83.474 193.285 83.5937L195.457 84.0312C196.624 84.2708 197.493 84.6562 198.066 85.1875C198.639 85.7187 198.926 86.4167 198.926 87.2812C198.926 88.0677 198.694 88.7578 198.23 89.3516C197.772 89.9453 197.142 90.4089 196.34 90.7422C195.543 91.0703 194.624 91.2344 193.582 91.2344C191.993 91.2344 190.728 90.9036 189.785 90.2422C188.848 89.5755 188.298 88.6693 188.137 87.5234L191.41 87.3516C191.509 87.8359 191.749 88.2057 192.129 88.4609C192.509 88.7109 192.996 88.8359 193.59 88.8359C194.173 88.8359 194.642 88.724 194.996 88.5C195.355 88.2708 195.538 87.9766 195.543 87.6172C195.538 87.3151 195.41 87.0677 195.16 86.875C194.91 86.6771 194.525 86.526 194.004 86.4219L191.926 86.0078C190.754 85.7734 189.882 85.3672 189.309 84.7891C188.741 84.2109 188.457 83.474 188.457 82.5781C188.457 81.8073 188.665 81.1432 189.082 80.5859C189.504 80.0286 190.095 79.599 190.855 79.2969C191.621 78.9948 192.517 78.8438 193.543 78.8438C195.059 78.8438 196.251 79.1641 197.121 79.8047C197.996 80.4453 198.507 81.3177 198.652 82.4219ZM204.443 91.2266C203.678 91.2266 202.995 91.0938 202.396 90.8281C201.798 90.5573 201.324 90.1589 200.975 89.6328C200.631 89.1016 200.459 88.4401 200.459 87.6484C200.459 86.9818 200.581 86.4219 200.826 85.9687C201.071 85.5156 201.404 85.151 201.826 84.875C202.248 84.599 202.727 84.3906 203.264 84.25C203.805 84.1094 204.373 84.0104 204.967 83.9531C205.665 83.8802 206.227 83.8125 206.654 83.75C207.081 83.6823 207.391 83.5833 207.584 83.4531C207.777 83.3229 207.873 83.1302 207.873 82.875V82.8281C207.873 82.3333 207.717 81.9505 207.404 81.6797C207.097 81.4089 206.66 81.2734 206.092 81.2734C205.493 81.2734 205.016 81.4062 204.662 81.6719C204.308 81.9323 204.074 82.2604 203.959 82.6562L200.881 82.4062C201.037 81.6771 201.344 81.0469 201.803 80.5156C202.261 79.9792 202.852 79.5677 203.576 79.2812C204.305 78.9896 205.149 78.8438 206.107 78.8438C206.774 78.8438 207.412 78.9219 208.021 79.0781C208.636 79.2344 209.18 79.4766 209.654 79.8047C210.133 80.1328 210.511 80.5547 210.787 81.0703C211.063 81.5807 211.201 82.1927 211.201 82.9062V91H208.045V89.3359H207.951C207.758 89.7109 207.501 90.0417 207.178 90.3281C206.855 90.6094 206.467 90.8307 206.014 90.9922C205.561 91.1484 205.037 91.2266 204.443 91.2266ZM205.396 88.9297C205.886 88.9297 206.318 88.8333 206.693 88.6406C207.068 88.4427 207.363 88.1771 207.576 87.8438C207.79 87.5104 207.896 87.1328 207.896 86.7109V85.4375C207.792 85.5052 207.649 85.5677 207.467 85.625C207.29 85.6771 207.089 85.7266 206.865 85.7734C206.641 85.8151 206.417 85.8542 206.193 85.8906C205.969 85.9219 205.766 85.9505 205.584 85.9766C205.193 86.0339 204.852 86.125 204.561 86.25C204.269 86.375 204.042 86.5443 203.881 86.7578C203.719 86.9661 203.639 87.2266 203.639 87.5391C203.639 87.9922 203.803 88.3385 204.131 88.5781C204.464 88.8125 204.886 88.9297 205.396 88.9297ZM219.205 91.2344C217.976 91.2344 216.919 90.974 216.033 90.4531C215.153 89.9271 214.476 89.1979 214.002 88.2656C213.533 87.3333 213.299 86.2604 213.299 85.0469C213.299 83.8177 213.536 82.7396 214.01 81.8125C214.489 80.8802 215.169 80.1536 216.049 79.6328C216.929 79.1068 217.976 78.8438 219.189 78.8438C220.236 78.8438 221.153 79.0339 221.939 79.4141C222.726 79.7943 223.348 80.3281 223.807 81.0156C224.265 81.7031 224.518 82.5104 224.564 83.4375H221.424C221.335 82.8385 221.101 82.3568 220.721 81.9922C220.346 81.6224 219.854 81.4375 219.244 81.4375C218.729 81.4375 218.278 81.5781 217.893 81.8594C217.512 82.1354 217.215 82.5391 217.002 83.0703C216.788 83.6016 216.682 84.2448 216.682 85C216.682 85.7656 216.786 86.4167 216.994 86.9531C217.208 87.4896 217.507 87.8984 217.893 88.1797C218.278 88.4609 218.729 88.6016 219.244 88.6016C219.624 88.6016 219.965 88.5234 220.268 88.3672C220.575 88.2109 220.827 87.9844 221.025 87.6875C221.229 87.3854 221.361 87.0234 221.424 86.6016H224.564C224.512 87.5182 224.262 88.3255 223.814 89.0234C223.372 89.7161 222.76 90.2578 221.979 90.6484C221.197 91.0391 220.273 91.2344 219.205 91.2344ZM233.078 79V81.5H225.852V79H233.078ZM227.492 76.125H230.82V87.3125C230.82 87.6198 230.867 87.8594 230.961 88.0312C231.055 88.1979 231.185 88.3151 231.352 88.3828C231.523 88.4505 231.721 88.4844 231.945 88.4844C232.102 88.4844 232.258 88.4714 232.414 88.4453C232.57 88.4141 232.69 88.3906 232.773 88.375L233.297 90.8516C233.13 90.9036 232.896 90.9635 232.594 91.0313C232.292 91.1042 231.924 91.1484 231.492 91.1641C230.69 91.1953 229.987 91.0885 229.383 90.8437C228.784 90.599 228.318 90.2187 227.984 89.7031C227.651 89.1875 227.487 88.5365 227.492 87.75V76.125ZM235.246 91V79H238.574V91H235.246ZM236.918 77.4531C236.423 77.4531 235.999 77.2891 235.645 76.9609C235.296 76.6276 235.121 76.2292 235.121 75.7656C235.121 75.3073 235.296 74.9141 235.645 74.5859C235.999 74.2526 236.423 74.0859 236.918 74.0859C237.413 74.0859 237.835 74.2526 238.184 74.5859C238.538 74.9141 238.715 75.3073 238.715 75.7656C238.715 76.2292 238.538 76.6276 238.184 76.9609C237.835 77.2891 237.413 77.4531 236.918 77.4531ZM246.662 91.2344C245.449 91.2344 244.399 90.9766 243.514 90.4609C242.633 89.9401 241.954 89.2161 241.475 88.2891C240.995 87.3568 240.756 86.276 240.756 85.0469C240.756 83.8073 240.995 82.724 241.475 81.7969C241.954 80.8646 242.633 80.1406 243.514 79.625C244.399 79.1042 245.449 78.8438 246.662 78.8438C247.876 78.8438 248.923 79.1042 249.803 79.625C250.688 80.1406 251.37 80.8646 251.85 81.7969C252.329 82.724 252.568 83.8073 252.568 85.0469C252.568 86.276 252.329 87.3568 251.85 88.2891C251.37 89.2161 250.688 89.9401 249.803 90.4609C248.923 90.9766 247.876 91.2344 246.662 91.2344ZM246.678 88.6562C247.23 88.6562 247.691 88.5 248.061 88.1875C248.43 87.8698 248.709 87.4375 248.896 86.8906C249.089 86.3437 249.186 85.7214 249.186 85.0234C249.186 84.3255 249.089 83.7031 248.896 83.1562C248.709 82.6094 248.43 82.1771 248.061 81.8594C247.691 81.5417 247.23 81.3828 246.678 81.3828C246.12 81.3828 245.652 81.5417 245.271 81.8594C244.896 82.1771 244.613 82.6094 244.42 83.1562C244.232 83.7031 244.139 84.3255 244.139 85.0234C244.139 85.7214 244.232 86.3437 244.42 86.8906C244.613 87.4375 244.896 87.8698 245.271 88.1875C245.652 88.5 246.12 88.6562 246.678 88.6562ZM258.061 84.0625V91H254.732V79H257.904V81.1172H258.045C258.311 80.4193 258.756 79.8672 259.381 79.4609C260.006 79.0495 260.764 78.8438 261.654 78.8438C262.488 78.8438 263.214 79.026 263.834 79.3906C264.454 79.7552 264.936 80.276 265.279 80.9531C265.623 81.625 265.795 82.4271 265.795 83.3594V91H262.467V83.9531C262.472 83.2187 262.285 82.6458 261.904 82.2344C261.524 81.8177 261.001 81.6094 260.334 81.6094C259.886 81.6094 259.49 81.7057 259.146 81.8984C258.808 82.0911 258.542 82.3724 258.35 82.7422C258.162 83.1068 258.066 83.5469 258.061 84.0625ZM278.402 82.4219L275.355 82.6094C275.303 82.349 275.191 82.1146 275.02 81.9062C274.848 81.6927 274.621 81.5234 274.34 81.3984C274.064 81.2682 273.733 81.2031 273.348 81.2031C272.832 81.2031 272.397 81.3125 272.043 81.5312C271.689 81.7448 271.512 82.0312 271.512 82.3906C271.512 82.6771 271.626 82.9193 271.855 83.1172C272.085 83.3151 272.478 83.474 273.035 83.5937L275.207 84.0312C276.374 84.2708 277.243 84.6562 277.816 85.1875C278.389 85.7187 278.676 86.4167 278.676 87.2812C278.676 88.0677 278.444 88.7578 277.98 89.3516C277.522 89.9453 276.892 90.4089 276.09 90.7422C275.293 91.0703 274.374 91.2344 273.332 91.2344C271.743 91.2344 270.478 90.9036 269.535 90.2422C268.598 89.5755 268.048 88.6693 267.887 87.5234L271.16 87.3516C271.259 87.8359 271.499 88.2057 271.879 88.4609C272.259 88.7109 272.746 88.8359 273.34 88.8359C273.923 88.8359 274.392 88.724 274.746 88.5C275.105 88.2708 275.288 87.9766 275.293 87.6172C275.288 87.3151 275.16 87.0677 274.91 86.875C274.66 86.6771 274.275 86.526 273.754 86.4219L271.676 86.0078C270.504 85.7734 269.632 85.3672 269.059 84.7891C268.491 84.2109 268.207 83.474 268.207 82.5781C268.207 81.8073 268.415 81.1432 268.832 80.5859C269.254 80.0286 269.845 79.599 270.605 79.2969C271.371 78.9948 272.267 78.8438 273.293 78.8438C274.809 78.8438 276.001 79.1641 276.871 79.8047C277.746 80.4453 278.257 81.3177 278.402 82.4219ZM293.34 81.6797V84.3203H286.043V81.6797H293.34ZM301.33 91V75H307.643C308.851 75 309.882 75.2161 310.736 75.6484C311.596 76.0755 312.249 76.6823 312.697 77.4688C313.15 78.25 313.377 79.1693 313.377 80.2266C313.377 81.2891 313.148 82.2031 312.689 82.9687C312.231 83.7292 311.567 84.3125 310.697 84.7187C309.833 85.125 308.786 85.3281 307.557 85.3281H303.33V82.6094H307.01C307.656 82.6094 308.192 82.5208 308.619 82.3438C309.046 82.1667 309.364 81.901 309.572 81.5469C309.786 81.1927 309.893 80.7526 309.893 80.2266C309.893 79.6953 309.786 79.2474 309.572 78.8828C309.364 78.5182 309.044 78.2422 308.611 78.0547C308.184 77.862 307.645 77.7656 306.994 77.7656H304.713V91H301.33ZM309.971 83.7188L313.947 91H310.213L306.322 83.7188H309.971ZM315.705 91V79H319.033V91H315.705ZM317.377 77.4531C316.882 77.4531 316.458 77.2891 316.104 76.9609C315.755 76.6276 315.58 76.2292 315.58 75.7656C315.58 75.3073 315.755 74.9141 316.104 74.5859C316.458 74.2526 316.882 74.0859 317.377 74.0859C317.872 74.0859 318.294 74.2526 318.643 74.5859C318.997 74.9141 319.174 75.3073 319.174 75.7656C319.174 76.2292 318.997 76.6276 318.643 76.9609C318.294 77.2891 317.872 77.4531 317.377 77.4531ZM331.684 82.4219L328.637 82.6094C328.585 82.349 328.473 82.1146 328.301 81.9062C328.129 81.6927 327.902 81.5234 327.621 81.3984C327.345 81.2682 327.014 81.2031 326.629 81.2031C326.113 81.2031 325.678 81.3125 325.324 81.5312C324.97 81.7448 324.793 82.0312 324.793 82.3906C324.793 82.6771 324.908 82.9193 325.137 83.1172C325.366 83.3151 325.759 83.474 326.316 83.5937L328.488 84.0312C329.655 84.2708 330.525 84.6562 331.098 85.1875C331.671 85.7187 331.957 86.4167 331.957 87.2812C331.957 88.0677 331.725 88.7578 331.262 89.3516C330.803 89.9453 330.173 90.4089 329.371 90.7422C328.574 91.0703 327.655 91.2344 326.613 91.2344C325.025 91.2344 323.759 90.9036 322.816 90.2422C321.879 89.5755 321.329 88.6693 321.168 87.5234L324.441 87.3516C324.54 87.8359 324.78 88.2057 325.16 88.4609C325.54 88.7109 326.027 88.8359 326.621 88.8359C327.204 88.8359 327.673 88.724 328.027 88.5C328.387 88.2708 328.569 87.9766 328.574 87.6172C328.569 87.3151 328.441 87.0677 328.191 86.875C327.941 86.6771 327.556 86.526 327.035 86.4219L324.957 86.0078C323.785 85.7734 322.913 85.3672 322.34 84.7891C321.772 84.2109 321.488 83.474 321.488 82.5781C321.488 81.8073 321.697 81.1432 322.113 80.5859C322.535 80.0286 323.126 79.599 323.887 79.2969C324.652 78.9948 325.548 78.8438 326.574 78.8438C328.09 78.8438 329.283 79.1641 330.152 79.8047C331.027 80.4453 331.538 81.3177 331.684 82.4219ZM337.068 87.5469L337.076 83.5547H337.561L341.404 79H345.225L340.061 85.0313H339.271L337.068 87.5469ZM334.053 91V75H337.381V91H334.053ZM341.553 91L338.021 85.7734L340.24 83.4219L345.451 91H341.553ZM360.691 79.6016C360.629 78.9714 360.361 78.4818 359.887 78.1328C359.413 77.7839 358.77 77.6094 357.957 77.6094C357.405 77.6094 356.939 77.6875 356.559 77.8437C356.178 77.9948 355.887 78.2057 355.684 78.4766C355.486 78.7474 355.387 79.0547 355.387 79.3984C355.376 79.6849 355.436 79.9349 355.566 80.1484C355.702 80.362 355.887 80.5469 356.121 80.7031C356.355 80.8542 356.626 80.987 356.934 81.1016C357.241 81.2109 357.569 81.3047 357.918 81.3828L359.355 81.7266C360.053 81.8828 360.694 82.0911 361.277 82.3516C361.861 82.612 362.366 82.9323 362.793 83.3125C363.22 83.6927 363.551 84.1406 363.785 84.6562C364.025 85.1719 364.147 85.763 364.152 86.4297C364.147 87.4089 363.897 88.2578 363.402 88.9766C362.913 89.6901 362.204 90.2448 361.277 90.6406C360.355 91.0312 359.243 91.2266 357.941 91.2266C356.65 91.2266 355.525 91.0286 354.566 90.6328C353.613 90.237 352.868 89.651 352.332 88.875C351.801 88.0937 351.522 87.1276 351.496 85.9766H354.77C354.806 86.513 354.96 86.9609 355.23 87.3203C355.507 87.6745 355.874 87.9427 356.332 88.125C356.796 88.3021 357.319 88.3906 357.902 88.3906C358.475 88.3906 358.973 88.3073 359.395 88.1406C359.822 87.974 360.152 87.7422 360.387 87.4453C360.621 87.1484 360.738 86.8073 360.738 86.4219C360.738 86.0625 360.632 85.7604 360.418 85.5156C360.21 85.2708 359.902 85.0625 359.496 84.8906C359.095 84.7187 358.603 84.5625 358.02 84.4219L356.277 83.9844C354.928 83.6562 353.863 83.1432 353.082 82.4453C352.301 81.7474 351.913 80.8073 351.918 79.625C351.913 78.6562 352.171 77.8099 352.691 77.0859C353.217 76.362 353.939 75.7969 354.855 75.3906C355.772 74.9844 356.814 74.7812 357.98 74.7812C359.168 74.7812 360.204 74.9844 361.09 75.3906C361.98 75.7969 362.673 76.362 363.168 77.0859C363.663 77.8099 363.918 78.6484 363.934 79.6016H360.691ZM371.787 91.2344C370.558 91.2344 369.501 90.974 368.615 90.4531C367.735 89.9271 367.058 89.1979 366.584 88.2656C366.115 87.3333 365.881 86.2604 365.881 85.0469C365.881 83.8177 366.118 82.7396 366.592 81.8125C367.071 80.8802 367.751 80.1536 368.631 79.6328C369.511 79.1068 370.558 78.8438 371.771 78.8438C372.818 78.8438 373.735 79.0339 374.521 79.4141C375.308 79.7943 375.93 80.3281 376.389 81.0156C376.847 81.7031 377.1 82.5104 377.146 83.4375H374.006C373.917 82.8385 373.683 82.3568 373.303 81.9922C372.928 81.6224 372.436 81.4375 371.826 81.4375C371.311 81.4375 370.86 81.5781 370.475 81.8594C370.094 82.1354 369.798 82.5391 369.584 83.0703C369.37 83.6016 369.264 84.2448 369.264 85C369.264 85.7656 369.368 86.4167 369.576 86.9531C369.79 87.4896 370.089 87.8984 370.475 88.1797C370.86 88.4609 371.311 88.6016 371.826 88.6016C372.206 88.6016 372.548 88.5234 372.85 88.3672C373.157 88.2109 373.41 87.9844 373.607 87.6875C373.811 87.3854 373.943 87.0234 374.006 86.6016H377.146C377.094 87.5182 376.844 88.3255 376.396 89.0234C375.954 89.7161 375.342 90.2578 374.561 90.6484C373.779 91.0391 372.855 91.2344 371.787 91.2344ZM384.699 91.2344C383.486 91.2344 382.436 90.9766 381.551 90.4609C380.671 89.9401 379.991 89.2161 379.512 88.2891C379.033 87.3568 378.793 86.276 378.793 85.0469C378.793 83.8073 379.033 82.724 379.512 81.7969C379.991 80.8646 380.671 80.1406 381.551 79.625C382.436 79.1042 383.486 78.8438 384.699 78.8438C385.913 78.8438 386.96 79.1042 387.84 79.625C388.725 80.1406 389.408 80.8646 389.887 81.7969C390.366 82.724 390.605 83.8073 390.605 85.0469C390.605 86.276 390.366 87.3568 389.887 88.2891C389.408 89.2161 388.725 89.9401 387.84 90.4609C386.96 90.9766 385.913 91.2344 384.699 91.2344ZM384.715 88.6562C385.267 88.6562 385.728 88.5 386.098 88.1875C386.467 87.8698 386.746 87.4375 386.934 86.8906C387.126 86.3437 387.223 85.7214 387.223 85.0234C387.223 84.3255 387.126 83.7031 386.934 83.1562C386.746 82.6094 386.467 82.1771 386.098 81.8594C385.728 81.5417 385.267 81.3828 384.715 81.3828C384.158 81.3828 383.689 81.5417 383.309 81.8594C382.934 82.1771 382.65 82.6094 382.457 83.1562C382.27 83.7031 382.176 84.3255 382.176 85.0234C382.176 85.7214 382.27 86.3437 382.457 86.8906C382.65 87.4375 382.934 87.8698 383.309 88.1875C383.689 88.5 384.158 88.6562 384.715 88.6562ZM392.77 91V79H395.996V81.0937H396.121C396.34 80.349 396.707 79.7865 397.223 79.4063C397.738 79.0208 398.332 78.8281 399.004 78.8281C399.171 78.8281 399.35 78.8385 399.543 78.8594C399.736 78.8802 399.905 78.9089 400.051 78.9453V81.8984C399.895 81.8516 399.678 81.8099 399.402 81.7734C399.126 81.737 398.874 81.7188 398.645 81.7188C398.155 81.7188 397.717 81.8255 397.332 82.0391C396.952 82.2474 396.65 82.5391 396.426 82.9141C396.207 83.2891 396.098 83.7214 396.098 84.2109V91H392.77ZM406.682 91.2344C405.447 91.2344 404.385 90.9844 403.494 90.4844C402.609 89.9792 401.926 89.2656 401.447 88.3437C400.968 87.4167 400.729 86.3203 400.729 85.0547C400.729 83.8203 400.968 82.737 401.447 81.8047C401.926 80.8724 402.601 80.1458 403.471 79.625C404.346 79.1042 405.372 78.8438 406.549 78.8438C407.34 78.8438 408.077 78.9714 408.76 79.2266C409.447 79.4766 410.046 79.8542 410.557 80.3594C411.072 80.8646 411.473 81.5 411.76 82.2656C412.046 83.026 412.189 83.9167 412.189 84.9375V85.8516H402.057V83.7891H409.057C409.057 83.3099 408.952 82.8854 408.744 82.5156C408.536 82.1458 408.247 81.8568 407.877 81.6484C407.512 81.4349 407.088 81.3281 406.604 81.3281C406.098 81.3281 405.65 81.4453 405.26 81.6797C404.874 81.9089 404.572 82.2187 404.354 82.6094C404.135 82.9948 404.023 83.4245 404.018 83.8984V85.8594C404.018 86.4531 404.127 86.9661 404.346 87.3984C404.57 87.8307 404.885 88.1641 405.291 88.3984C405.697 88.6328 406.179 88.75 406.736 88.75C407.106 88.75 407.445 88.6979 407.752 88.5938C408.059 88.4896 408.322 88.3333 408.541 88.125C408.76 87.9167 408.926 87.6615 409.041 87.3594L412.119 87.5625C411.963 88.3021 411.643 88.9479 411.158 89.5C410.679 90.0469 410.059 90.474 409.299 90.7813C408.544 91.0833 407.671 91.2344 406.682 91.2344Z" fill="#1E1B39"/>
<path d="M55.8342 52.1818C55.7575 51.5341 55.4464 51.0312 54.9009 50.6733C54.3555 50.3153 53.6864 50.1364 52.8938 50.1364C52.3143 50.1364 51.8072 50.2301 51.3725 50.4176C50.9421 50.6051 50.6055 50.8629 50.3626 51.1911C50.1239 51.5192 50.0046 51.892 50.0046 52.3097C50.0046 52.6591 50.0877 52.9595 50.2539 53.2109C50.4244 53.4581 50.6417 53.6648 50.9059 53.831C51.1701 53.9929 51.4471 54.1271 51.7369 54.2337C52.0266 54.3359 52.293 54.419 52.5359 54.483L53.8654 54.8409C54.2063 54.9304 54.5856 55.054 55.0032 55.2116C55.4251 55.3693 55.8278 55.5845 56.2113 55.8572C56.5991 56.1257 56.9187 56.4709 57.1701 56.8928C57.4215 57.3146 57.5472 57.8324 57.5472 58.446C57.5472 59.1534 57.3619 59.7926 56.9911 60.3636C56.6246 60.9347 56.0877 61.3885 55.3803 61.7251C54.6772 62.0618 53.8228 62.2301 52.8171 62.2301C51.8796 62.2301 51.0678 62.0788 50.3817 61.7763C49.6999 61.4737 49.163 61.0518 48.771 60.5107C48.3832 59.9695 48.1637 59.3409 48.1126 58.625H49.7489C49.7915 59.1193 49.9577 59.5284 50.2475 59.8523C50.5415 60.1719 50.9123 60.4105 51.3597 60.5682C51.8114 60.7216 52.2972 60.7983 52.8171 60.7983C53.4222 60.7983 53.9656 60.7003 54.4471 60.5043C54.9286 60.304 55.31 60.027 55.5913 59.6733C55.8725 59.3153 56.0131 58.8977 56.0131 58.4205C56.0131 57.9858 55.8917 57.6321 55.6488 57.3594C55.4059 57.0866 55.0863 56.8651 54.69 56.6946C54.2937 56.5241 53.8654 56.375 53.4052 56.2472L51.7944 55.7869C50.7717 55.4929 49.962 55.0732 49.3654 54.5277C48.7688 53.9822 48.4705 53.2685 48.4705 52.3864C48.4705 51.6534 48.6687 51.0142 49.065 50.4688C49.4656 49.919 50.0025 49.4929 50.6758 49.1903C51.3533 48.8835 52.1097 48.7301 52.945 48.7301C53.7887 48.7301 54.5387 48.8814 55.195 49.1839C55.8512 49.4822 56.3711 49.8913 56.7546 50.4112C57.1424 50.9311 57.3469 51.5213 57.3683 52.1818H55.8342ZM64.2189 52.1818V53.4602H59.1309V52.1818H64.2189ZM60.6138 49.8295H62.1223V59.1875C62.1223 59.6136 62.1841 59.9332 62.3077 60.1463C62.4355 60.3551 62.5975 60.4957 62.7935 60.5682C62.9938 60.6364 63.2047 60.6705 63.4263 60.6705C63.5925 60.6705 63.7289 60.6619 63.8354 60.6449C63.9419 60.6236 64.0272 60.6065 64.0911 60.5938L64.3979 61.9489C64.2956 61.9872 64.1529 62.0256 63.9696 62.0639C63.7864 62.1065 63.5542 62.1278 63.2729 62.1278C62.8468 62.1278 62.4292 62.0362 62.0201 61.853C61.6152 61.6697 61.2786 61.3906 61.0101 61.0156C60.7459 60.6406 60.6138 60.1676 60.6138 59.5966V49.8295ZM69.3773 62.2301C68.7551 62.2301 68.1905 62.1129 67.6834 61.8786C67.1763 61.6399 66.7736 61.2969 66.4753 60.8494C66.177 60.3977 66.0279 59.8523 66.0279 59.2131C66.0279 58.6506 66.1387 58.1946 66.3603 57.8452C66.5819 57.4915 66.878 57.2145 67.2488 57.0142C67.6195 56.8139 68.0286 56.6648 68.476 56.5668C68.9277 56.4645 69.3816 56.3835 69.8375 56.3239C70.4341 56.2472 70.9178 56.1896 71.2885 56.1513C71.6635 56.1087 71.9363 56.0384 72.1067 55.9403C72.2814 55.8423 72.3688 55.6719 72.3688 55.429V55.3778C72.3688 54.7472 72.1962 54.2571 71.851 53.9077C71.5101 53.5582 70.9924 53.3835 70.2978 53.3835C69.5776 53.3835 69.013 53.5412 68.6039 53.8565C68.1948 54.1719 67.9071 54.5085 67.7409 54.8665L66.3091 54.3551C66.5648 53.7585 66.9057 53.294 67.3319 52.9616C67.7623 52.625 68.231 52.3906 68.7381 52.2585C69.2495 52.1222 69.7523 52.054 70.2466 52.054C70.562 52.054 70.9242 52.0923 71.3333 52.169C71.7466 52.2415 72.1451 52.3928 72.5286 52.6229C72.9164 52.853 73.2381 53.2003 73.4938 53.6648C73.7495 54.1293 73.8773 54.7514 73.8773 55.5312V62H72.3688V60.6705H72.2921C72.1898 60.8835 72.0194 61.1115 71.7807 61.3544C71.5421 61.5973 71.2246 61.804 70.8283 61.9744C70.432 62.1449 69.9483 62.2301 69.3773 62.2301ZM69.6074 60.875C70.204 60.875 70.7069 60.7578 71.1159 60.5234C71.5293 60.2891 71.8404 59.9865 72.0492 59.6158C72.2623 59.245 72.3688 58.8551 72.3688 58.446V57.0653C72.3049 57.142 72.1642 57.2124 71.9469 57.2763C71.7338 57.3359 71.4867 57.3892 71.2054 57.4361C70.9284 57.4787 70.6578 57.517 70.3936 57.5511C70.1337 57.581 69.9228 57.6065 69.7608 57.6278C69.3688 57.679 69.0023 57.7621 68.6614 57.8771C68.3248 57.9879 68.052 58.1562 67.8432 58.3821C67.6387 58.6037 67.5364 58.9062 67.5364 59.2898C67.5364 59.8139 67.7303 60.2102 68.1181 60.4787C68.5101 60.7429 69.0066 60.875 69.6074 60.875ZM80.9006 52.1818V53.4602H75.8125V52.1818H80.9006ZM77.2955 49.8295H78.804V59.1875C78.804 59.6136 78.8658 59.9332 78.9893 60.1463C79.1172 60.3551 79.2791 60.4957 79.4751 60.5682C79.6754 60.6364 79.8864 60.6705 80.108 60.6705C80.2741 60.6705 80.4105 60.6619 80.517 60.6449C80.6236 60.6236 80.7088 60.6065 80.7727 60.5938L81.0795 61.9489C80.9773 61.9872 80.8345 62.0256 80.6513 62.0639C80.468 62.1065 80.2358 62.1278 79.9545 62.1278C79.5284 62.1278 79.1108 62.0362 78.7017 61.853C78.2969 61.6697 77.9602 61.3906 77.6918 61.0156C77.4276 60.6406 77.2955 60.1676 77.2955 59.5966V49.8295ZM83.1697 62V52.1818H84.6783V62H83.1697ZM83.9368 50.5455C83.6428 50.5455 83.3892 50.4453 83.1761 50.245C82.9673 50.0447 82.8629 49.804 82.8629 49.5227C82.8629 49.2415 82.9673 49.0007 83.1761 48.8004C83.3892 48.6001 83.6428 48.5 83.9368 48.5C84.2308 48.5 84.4822 48.6001 84.6911 48.8004C84.9041 49.0007 85.0107 49.2415 85.0107 49.5227C85.0107 49.804 84.9041 50.0447 84.6911 50.245C84.4822 50.4453 84.2308 50.5455 83.9368 50.5455ZM94.3958 54.3807L93.0407 54.7642C92.9554 54.5384 92.8297 54.3189 92.6635 54.1058C92.5016 53.8885 92.28 53.7095 91.9988 53.5689C91.7175 53.4283 91.3574 53.358 90.9185 53.358C90.3176 53.358 89.8169 53.4964 89.4164 53.7734C89.0201 54.0462 88.8219 54.3935 88.8219 54.8153C88.8219 55.1903 88.9583 55.4865 89.231 55.7038C89.5037 55.9212 89.9299 56.1023 90.5094 56.2472L91.9668 56.6051C92.8446 56.8182 93.4988 57.1442 93.9292 57.5831C94.3596 58.0178 94.5748 58.5781 94.5748 59.2642C94.5748 59.8267 94.4128 60.3295 94.089 60.7727C93.7694 61.2159 93.3219 61.5653 92.7466 61.821C92.1713 62.0767 91.5023 62.2045 90.7395 62.2045C89.7381 62.2045 88.9093 61.9872 88.253 61.5526C87.5968 61.1179 87.1813 60.483 87.0066 59.6477L88.4384 59.2898C88.5748 59.8182 88.8326 60.2145 89.2118 60.4787C89.5953 60.7429 90.0961 60.875 90.714 60.875C91.4171 60.875 91.9753 60.7259 92.3887 60.4276C92.8063 60.125 93.0151 59.7628 93.0151 59.3409C93.0151 59 92.8958 58.7145 92.6571 58.4844C92.4185 58.25 92.052 58.0753 91.5577 57.9602L89.9213 57.5767C89.0222 57.3636 88.3617 57.0334 87.9398 56.5859C87.5222 56.1342 87.3134 55.5696 87.3134 54.892C87.3134 54.3381 87.4689 53.848 87.78 53.4219C88.0953 52.9957 88.5236 52.6612 89.0648 52.4183C89.6103 52.1754 90.2282 52.054 90.9185 52.054C91.8901 52.054 92.6529 52.267 93.2069 52.6932C93.7651 53.1193 94.1614 53.6818 94.3958 54.3807ZM101.115 52.1818V53.4602H96.0273V52.1818H101.115ZM97.5103 49.8295H99.0188V59.1875C99.0188 59.6136 99.0806 59.9332 99.2042 60.1463C99.332 60.3551 99.494 60.4957 99.69 60.5682C99.8903 60.6364 100.101 60.6705 100.323 60.6705C100.489 60.6705 100.625 60.6619 100.732 60.6449C100.838 60.6236 100.924 60.6065 100.988 60.5938L101.294 61.9489C101.192 61.9872 101.049 62.0256 100.866 62.0639C100.683 62.1065 100.451 62.1278 100.169 62.1278C99.7433 62.1278 99.3256 62.0362 98.9165 61.853C98.5117 61.6697 98.1751 61.3906 97.9066 61.0156C97.6424 60.6406 97.5103 60.1676 97.5103 59.5966V49.8295ZM103.385 62V52.1818H104.893V62H103.385ZM104.152 50.5455C103.858 50.5455 103.604 50.4453 103.391 50.245C103.182 50.0447 103.078 49.804 103.078 49.5227C103.078 49.2415 103.182 49.0007 103.391 48.8004C103.604 48.6001 103.858 48.5 104.152 48.5C104.446 48.5 104.697 48.6001 104.906 48.8004C105.119 49.0007 105.225 49.2415 105.225 49.5227C105.225 49.804 105.119 50.0447 104.906 50.245C104.697 50.4453 104.446 50.5455 104.152 50.5455ZM111.645 62.2045C110.724 62.2045 109.932 61.9872 109.267 61.5526C108.602 61.1179 108.091 60.5192 107.733 59.7564C107.375 58.9936 107.196 58.1222 107.196 57.142C107.196 56.1449 107.379 55.2649 107.746 54.5021C108.116 53.7351 108.632 53.1364 109.292 52.706C109.957 52.2713 110.733 52.054 111.619 52.054C112.309 52.054 112.932 52.1818 113.486 52.4375C114.04 52.6932 114.493 53.0511 114.847 53.5114C115.201 53.9716 115.42 54.5085 115.506 55.1222H113.997C113.882 54.6747 113.626 54.2784 113.23 53.9332C112.838 53.5838 112.309 53.4091 111.645 53.4091C111.057 53.4091 110.541 53.5625 110.098 53.8693C109.659 54.1719 109.316 54.6001 109.069 55.1541C108.826 55.7038 108.704 56.3494 108.704 57.0909C108.704 57.8494 108.824 58.5099 109.062 59.0724C109.305 59.6349 109.646 60.0717 110.085 60.3828C110.528 60.6939 111.048 60.8494 111.645 60.8494C112.037 60.8494 112.393 60.7812 112.712 60.6449C113.032 60.5085 113.302 60.3125 113.524 60.0568C113.746 59.8011 113.903 59.4943 113.997 59.1364H115.506C115.42 59.7159 115.209 60.2379 114.873 60.7024C114.54 61.1626 114.099 61.5291 113.55 61.8018C113.004 62.0703 112.369 62.2045 111.645 62.2045ZM124.665 54.3807L123.31 54.7642C123.225 54.5384 123.099 54.3189 122.933 54.1058C122.771 53.8885 122.55 53.7095 122.268 53.5689C121.987 53.4283 121.627 53.358 121.188 53.358C120.587 53.358 120.086 53.4964 119.686 53.7734C119.29 54.0462 119.091 54.3935 119.091 54.8153C119.091 55.1903 119.228 55.4865 119.501 55.7038C119.773 55.9212 120.199 56.1023 120.779 56.2472L122.236 56.6051C123.114 56.8182 123.768 57.1442 124.199 57.5831C124.629 58.0178 124.844 58.5781 124.844 59.2642C124.844 59.8267 124.682 60.3295 124.358 60.7727C124.039 61.2159 123.591 61.5653 123.016 61.821C122.441 62.0767 121.772 62.2045 121.009 62.2045C120.008 62.2045 119.179 61.9872 118.523 61.5526C117.866 61.1179 117.451 60.483 117.276 59.6477L118.708 59.2898C118.844 59.8182 119.102 60.2145 119.481 60.4787C119.865 60.7429 120.366 60.875 120.983 60.875C121.687 60.875 122.245 60.7259 122.658 60.4276C123.076 60.125 123.285 59.7628 123.285 59.3409C123.285 59 123.165 58.7145 122.927 58.4844C122.688 58.25 122.322 58.0753 121.827 57.9602L120.191 57.5767C119.292 57.3636 118.631 57.0334 118.209 56.5859C117.792 56.1342 117.583 55.5696 117.583 54.892C117.583 54.3381 117.738 53.848 118.05 53.4219C118.365 52.9957 118.793 52.6612 119.334 52.4183C119.88 52.1754 120.498 52.054 121.188 52.054C122.16 52.054 122.922 52.267 123.476 52.6932C124.035 53.1193 124.431 53.6818 124.665 54.3807Z" fill="#9291A5"/>
</g>
<defs>
<filter id="filter0_d_59648_42436" x="0" y="0" width="538" height="505.574" filterUnits="userSpaceOnUse" color-interpolation-filters="sRGB">
<feFlood flood-opacity="0" result="BackgroundImageFix"/>
<feColorMatrix in="SourceAlpha" type="matrix" values="0 0 0 0 0 0 0 0 0 0 0 0 0 0 0 0 0 0 127 0" result="hardAlpha"/>
<feOffset dy="1"/>
<feGaussianBlur stdDeviation="7"/>
<feColorMatrix type="matrix" values="0 0 0 0 0.0627451 0 0 0 0 0.0941176 0 0 0 0 0.156863 0 0 0 0.06 0"/>
<feBlend mode="normal" in2="BackgroundImageFix" result="effect1_dropShadow_59648_42436"/>
<feBlend mode="normal" in="SourceGraphic" in2="effect1_dropShadow_59648_42436" result="shape"/>
</filter>
<filter id="filter1_d_59648_42436" x="8" y="9" width="522" height="489.574" filterUnits="userSpaceOnUse" color-interpolation-filters="sRGB">
<feFlood flood-opacity="0" result="BackgroundImageFix"/>
<feColorMatrix in="SourceAlpha" type="matrix" values="0 0 0 0 0 0 0 0 0 0 0 0 0 0 0 0 0 0 127 0" result="hardAlpha"/>
<feOffset dy="2"/>
<feGaussianBlur stdDeviation="3"/>
<feComposite in2="hardAlpha" operator="out"/>
<feColorMatrix type="matrix" values="0 0 0 0 0.0509804 0 0 0 0 0.0392157 0 0 0 0 0.172549 0 0 0 0.08 0"/>
<feBlend mode="normal" in2="BackgroundImageFix" result="effect1_dropShadow_59648_42436"/>
<feBlend mode="normal" in="SourceGraphic" in2="effect1_dropShadow_59648_42436" result="shape"/>
</filter>
<linearGradient id="paint0_linear_59648_42436" x1="78.7471" y1="422.426" x2="92.9629" y2="436.642" gradientUnits="userSpaceOnUse">
<stop stop-color="#B39FFF"/>
<stop offset="1" stop-color="#6A1ED2"/>
</linearGradient>
<linearGradient id="paint1_linear_59648_42436" x1="446.197" y1="157.085" x2="86.7359" y2="516.547" gradientUnits="userSpaceOnUse">
<stop stop-color="#B39FFF"/>
<stop offset="1" stop-color="#6A1ED2"/>
</linearGradient>
</defs>
</svg>
