<svg width="32" height="32" viewBox="0 0 32 32" fill="none" xmlns="http://www.w3.org/2000/svg">
<path d="M16.0007 2.91089C8.32431 2.91089 2.10132 9.13501 2.10132 16.8103C2.10132 24.4867 8.32431 30.7086 16.0007 30.7086C23.6772 30.7086 29.899 24.4867 29.899 16.8103C29.899 9.13501 23.6766 2.91089 16.0007 2.91089ZM23.0021 14.0078C23.0094 14.158 23.0123 14.3087 23.0123 14.4611C23.0123 19.0901 19.489 24.4269 13.0464 24.4269C11.0686 24.4269 9.22685 23.8472 7.67689 22.8538C7.95121 22.886 8.22948 22.9024 8.51227 22.9024C10.1537 22.9024 11.6641 22.3424 12.8624 21.4032C11.33 21.3744 10.0368 20.3612 9.59092 18.9699C9.80428 19.0116 10.0238 19.0325 10.2496 19.0325C10.5691 19.0325 10.8784 18.9908 11.1725 18.91C9.56947 18.5883 8.36213 17.1716 8.36213 15.476C8.36213 15.4607 8.36213 15.4461 8.36269 15.4308C8.83457 15.6933 9.37474 15.8508 9.94934 15.8694C9.00898 15.24 8.39091 14.1693 8.39091 12.9535C8.39091 12.3117 8.56363 11.7094 8.86505 11.1924C10.5928 13.3113 13.174 14.7061 16.0854 14.8517C16.0256 14.596 15.9945 14.3279 15.9945 14.0536C15.9945 12.1198 17.5626 10.5512 19.4975 10.5512C20.505 10.5512 21.4149 10.9768 22.0538 11.6569C22.852 11.5006 23.6015 11.2082 24.2783 10.8069C24.0158 11.6253 23.461 12.3117 22.7374 12.7446C23.4469 12.66 24.122 12.4714 24.7496 12.1932C24.2811 12.897 23.6868 13.514 23.0021 14.0078Z" fill="white"/>
</svg>
