<svg width="366" height="173" viewBox="0 0 366 173" fill="none" xmlns="http://www.w3.org/2000/svg">
<mask id="mask0_2_2729" style="mask-type:alpha" maskUnits="userSpaceOnUse" x="0" y="0" width="366" height="173">
<rect x="0.736328" width="364.528" height="172.816" fill="#D9D9D9"/>
</mask>
<g mask="url(#mask0_2_2729)">
<path d="M10.7359 172.816C5.21307 172.816 0.70694 168.335 1.01404 162.821C2.4838 136.432 9.75916 110.647 22.3698 87.3262C34.9805 64.0053 52.5737 43.8002 73.8516 28.122C78.2979 24.846 84.5146 26.1634 87.5384 30.785L107.443 61.2071C110.467 65.8286 109.142 71.9952 104.781 75.3832C91.2941 85.8596 80.0992 99.0461 71.9416 114.132C63.7841 129.218 58.8788 145.805 57.4962 162.827C57.049 168.332 52.614 172.816 47.0911 172.816H10.7359Z" fill="url(#paint0_linear_2_2729)"/>
<path d="M85.7504 29.0325C108.243 14.4135 133.723 5.01494 160.322 1.52629C186.92 -1.96236 213.962 0.547348 239.464 8.87133C264.966 17.1953 288.282 31.1224 307.7 49.6311C327.118 68.1398 342.147 90.7606 351.684 115.834L311.544 131.102C304.285 112.02 292.848 94.8043 278.069 80.7182C263.291 66.6322 245.547 56.0329 226.138 49.6979C206.73 43.363 186.15 41.4529 165.907 44.108C145.664 46.763 126.272 53.9158 109.154 65.0416L85.7504 29.0325Z" fill="#F7F7FB"/>
<path d="M339.105 109.51C344.267 107.546 350.071 110.131 351.745 115.394C356.579 130.596 359.368 146.374 360.039 162.311C360.271 167.829 355.704 172.248 350.182 172.173L327.237 171.861C321.715 171.785 317.337 167.242 317.009 161.729C316.382 151.207 314.541 140.792 311.523 130.693C309.941 125.401 312.496 119.633 317.658 117.669L339.105 109.51Z" fill="#E0C6FD"/>
</g>
<defs>
<linearGradient id="paint0_linear_2_2729" x1="360.197" y1="-6.91455" x2="0.735931" y2="352.547" gradientUnits="userSpaceOnUse">
<stop stop-color="#B39FFF"/>
<stop offset="1" stop-color="#6A1ED2"/>
</linearGradient>
</defs>
</svg>
