<svg width="148" height="143" viewBox="0 0 148 143" fill="none" xmlns="http://www.w3.org/2000/svg">
<path opacity="0.5" d="M129.5 95.3232V59.5729C129.5 42.7202 129.5 34.2939 124.081 29.0584C119.343 24.4801 112.079 23.9055 98.6667 23.8333H49.3333C35.9206 23.9055 28.6569 24.4801 23.9185 29.0584C18.5 34.2939 18.5 42.7202 18.5 59.5729V95.3232C18.5 112.176 18.5 120.602 23.9185 125.838C29.3371 131.073 38.058 131.073 55.5 131.073H92.5C109.942 131.073 118.663 131.073 124.081 125.838C129.5 120.602 129.5 112.176 129.5 95.3232Z" fill="url(#paint0_linear_2_2840)"/>
<path d="M49.3333 20.8542C49.3333 15.9181 53.4747 11.9167 58.5833 11.9167H89.4167C94.5251 11.9167 98.6667 15.9181 98.6667 20.8542V26.8125C98.6667 31.7486 94.5251 35.75 89.4167 35.75H58.5833C53.4747 35.75 49.3333 31.7486 49.3333 26.8125V20.8542Z" fill="url(#paint1_linear_2_2840)"/>
<path fill-rule="evenodd" clip-rule="evenodd" d="M38.5417 62.5625C38.5417 60.0946 40.6124 58.0938 43.1667 58.0938H46.25C48.8043 58.0938 50.875 60.0946 50.875 62.5625C50.875 65.0304 48.8043 67.0312 46.25 67.0312H43.1667C40.6124 67.0312 38.5417 65.0304 38.5417 62.5625ZM60.125 62.5625C60.125 60.0946 62.1958 58.0938 64.75 58.0938H104.833C107.388 58.0938 109.458 60.0946 109.458 62.5625C109.458 65.0304 107.388 67.0312 104.833 67.0312H64.75C62.1958 67.0312 60.125 65.0304 60.125 62.5625ZM38.5417 83.4167C38.5417 80.9487 40.6124 78.9479 43.1667 78.9479H46.25C48.8043 78.9479 50.875 80.9487 50.875 83.4167C50.875 85.8846 48.8043 87.8854 46.25 87.8854H43.1667C40.6124 87.8854 38.5417 85.8846 38.5417 83.4167ZM60.125 83.4167C60.125 80.9487 62.1958 78.9479 64.75 78.9479H104.833C107.388 78.9479 109.458 80.9487 109.458 83.4167C109.458 85.8846 107.388 87.8854 104.833 87.8854H64.75C62.1958 87.8854 60.125 85.8846 60.125 83.4167ZM38.5417 104.271C38.5417 101.803 40.6124 99.8021 43.1667 99.8021H46.25C48.8043 99.8021 50.875 101.803 50.875 104.271C50.875 106.739 48.8043 108.74 46.25 108.74H43.1667C40.6124 108.74 38.5417 106.739 38.5417 104.271ZM60.125 104.271C60.125 101.803 62.1958 99.8021 64.75 99.8021H104.833C107.388 99.8021 109.458 101.803 109.458 104.271C109.458 106.739 107.388 108.74 104.833 108.74H64.75C62.1958 108.74 60.125 106.739 60.125 104.271Z" fill="url(#paint2_linear_2_2840)"/>
<defs>
<linearGradient id="paint0_linear_2_2840" x1="18.5" y1="23.8333" x2="125.676" y2="134.767" gradientUnits="userSpaceOnUse">
<stop stop-color="#B39FFF"/>
<stop offset="1" stop-color="#6A1ED2"/>
</linearGradient>
<linearGradient id="paint1_linear_2_2840" x1="49.3333" y1="11.9167" x2="68.0039" y2="50.5635" gradientUnits="userSpaceOnUse">
<stop stop-color="#B39FFF"/>
<stop offset="1" stop-color="#6A1ED2"/>
</linearGradient>
<linearGradient id="paint2_linear_2_2840" x1="38.5417" y1="58.0938" x2="86.4472" y2="125.173" gradientUnits="userSpaceOnUse">
<stop stop-color="#B39FFF"/>
<stop offset="1" stop-color="#6A1ED2"/>
</linearGradient>
</defs>
</svg>
