<svg width="166" height="44" viewBox="0 0 166 44" fill="none" xmlns="http://www.w3.org/2000/svg">
<path d="M165.694 22C165.694 19.1766 165.138 16.3808 164.058 13.7723C162.977 11.1638 161.394 8.79366 159.397 6.7972C157.401 4.80074 155.031 3.21707 152.422 2.13659C149.814 1.05611 147.018 0.5 144.194 0.5V22H165.694Z" fill="#B9C0D4"/>
<path d="M0 32.1415V11.6962H12.5592V15.6684H4.55638V20.4877H11.9751V24.2555H4.55638V32.1415H0Z" fill="#101828"/>
<path d="M14.2293 32.1415V16.9536H17.705C17.9094 17.5377 18.0847 18.5016 18.1431 19.1441C19.3114 17.7714 21.0639 16.9536 23.196 16.9536H23.5757V21.0426C23.2836 20.955 22.8455 20.8382 22.4366 20.8382C19.9248 20.8382 18.5812 22.1233 18.5812 24.1094V32.1415H14.2293Z" fill="#101828"/>
<path d="M28.7087 32.4628C25.6127 32.4628 23.4221 30.6519 23.4221 27.9356V27.6727C23.4221 24.4307 26.4597 22.7367 32.5057 22.7367H33.6448V22.2986C33.6448 20.955 32.7101 20.0496 30.8408 20.0496H30.724C29.2052 20.0496 27.4236 20.6045 25.8171 21.5099L24.1523 18.5016C25.9924 17.3625 28.475 16.6323 30.9285 16.6323H31.1913C35.1928 16.6323 37.7338 18.7936 37.7338 22.4446V28.6658C37.7338 29.8925 37.9675 31.0024 38.2596 32.1415H34.1705C33.9953 31.6742 33.8492 31.0608 33.7908 30.389C32.6225 31.5866 30.87 32.4628 28.7087 32.4628ZM29.8186 29.1623C31.2497 29.1623 32.7101 28.5782 33.674 27.5559V25.2777H32.6225C29.2052 25.2777 27.5696 26.0371 27.5696 27.4391V27.5267C27.5696 28.4906 28.475 29.1623 29.8186 29.1623Z" fill="#101828"/>
<path d="M44.8173 32.4628C41.4292 32.4628 39.5307 30.3306 39.5307 26.7089V16.9536H43.8827V25.745C43.8827 27.7604 44.7005 28.8118 46.4821 28.8118H46.5406C48.6435 28.8118 50.0163 27.2638 50.0163 24.8688V16.9536H54.3682V32.1415H50.9217C50.688 31.5573 50.4836 30.4475 50.4544 29.7757C49.14 31.4113 47.1539 32.4628 44.9049 32.4628H44.8173Z" fill="#101828"/>
<path d="M63.049 32.4628C58.8723 32.4628 55.8055 29.2792 55.8055 24.8396V24.2555C55.8055 19.8159 58.8723 16.6323 63.049 16.6323H63.2242C65.1227 16.6323 66.8167 17.3041 68.0434 18.4724V11.1121H72.3954V32.1415H68.9489C68.7444 31.645 68.5984 30.8272 68.5108 30.1846C67.2256 31.6158 65.3563 32.4628 63.2242 32.4628H63.049ZM64.0712 29.2207H64.3049C66.4662 29.2207 68.0434 27.3515 68.0434 24.6936V24.4015C68.0434 21.7436 66.4954 19.8743 64.3049 19.8743H64.0712C61.9099 19.8743 60.3327 21.7436 60.3327 24.4015V24.6936C60.3327 27.3515 61.9099 29.2207 64.0712 29.2207Z" fill="#101828"/>
<path d="M81.8089 32.492C78.6252 32.492 75.7337 31.5281 73.4847 29.6589L75.6753 26.0079C77.4569 27.5559 79.9396 28.3153 82.0425 28.3153C83.9702 28.3153 85.0509 27.5851 85.0509 26.3876C85.0509 24.898 83.2108 24.4015 81.0787 23.8173C77.7198 22.8827 73.9228 21.6268 73.9228 17.4209C73.9228 13.3902 77.3401 11.3165 80.9326 11.3165C84.0286 11.3165 86.6281 12.1927 88.731 13.8284L86.4529 17.4501C84.9633 16.165 82.7435 15.464 81.0202 15.464C79.3554 15.464 78.3624 16.1942 78.3624 17.3333C78.3624 18.7644 80.144 19.2318 82.393 19.8159C86.0147 20.7798 89.6073 22.1233 89.6073 26.1832C89.6073 30.2138 86.2192 32.492 81.8089 32.492Z" fill="#101828"/>
<path d="M90.8586 37.983V16.9536H94.3051C94.4803 17.4501 94.6556 18.2679 94.714 18.8813C95.9991 17.4793 97.8684 16.6323 100.001 16.6323H100.176C104.352 16.6323 107.419 19.8451 107.419 24.2555V24.8396C107.419 29.2499 104.352 32.4628 100.176 32.4628H100.001C98.1021 32.4628 96.4372 31.791 95.2105 30.6519V37.983H90.8586ZM98.9199 29.2207H99.1827C101.344 29.2207 102.892 27.3515 102.892 24.6936V24.4015C102.892 21.7436 101.344 19.8743 99.1827 19.8743H98.9199C96.7585 19.8743 95.2105 21.7436 95.2105 24.4015V24.6936C95.2105 27.3515 96.7585 29.2207 98.9199 29.2207Z" fill="#101828"/>
<path d="M116.278 32.4628C111.517 32.4628 108.041 29.2207 108.041 24.8396V24.2555C108.041 19.8743 111.517 16.6323 116.278 16.6323H116.541C121.302 16.6323 124.777 19.8743 124.777 24.2555V24.8396C124.777 29.2207 121.302 32.4628 116.541 32.4628H116.278ZM116.307 29.2207H116.511C118.673 29.2207 120.25 27.3515 120.25 24.6936V24.4015C120.25 21.7436 118.673 19.8743 116.511 19.8743H116.307C114.146 19.8743 112.539 21.7436 112.539 24.4015V24.6936C112.539 27.3515 114.146 29.2207 116.307 29.2207Z" fill="#101828"/>
<path d="M131.696 32.3459C128.571 32.3459 126.672 30.6519 126.672 27.3515V20.3124H124.686V17.4209C125.212 17.2456 126 17.0704 126.672 17.012V13.4487L130.995 12.9229V16.9536H135.551V20.3124H130.966V26.5629C130.966 28.1109 131.696 28.695 133.01 28.695C133.77 28.695 135.055 28.4906 135.639 28.3737V31.6742C134.617 32.1123 132.864 32.3459 131.696 32.3459Z" fill="#101828"/>
<path d="M142.652 32.3459C139.527 32.3459 137.628 30.6519 137.628 27.3515V20.3124H135.642V17.4209C136.168 17.2456 136.956 17.0704 137.628 17.012V13.4487L141.951 12.9229V16.9536H146.507V20.3124H141.922V26.5629C141.922 28.1109 142.652 28.695 143.966 28.695C144.726 28.695 146.011 28.4906 146.595 28.3737V31.6742C145.573 32.1123 143.82 32.3459 142.652 32.3459Z" fill="#101828"/>
<path d="M147.631 32.1415V16.9536H151.107C151.311 17.5377 151.487 18.5016 151.545 19.1441C152.713 17.7714 154.466 16.9536 156.598 16.9536H156.978V21.0426C156.686 20.955 156.248 20.8382 155.839 20.8382C153.327 20.8382 151.983 22.1233 151.983 24.1094V32.1415H147.631Z" fill="#101828"/>
</svg>
