<svg width="16" height="16" viewBox="0 0 16 16" fill="none" xmlns="http://www.w3.org/2000/svg">
<path d="M11.6538 5.44231C12.2592 5.44231 12.75 4.95154 12.75 4.34615C12.75 3.74076 12.2592 3.25 11.6538 3.25C11.0485 3.25 10.5577 3.74076 10.5577 4.34615M11.6538 5.44231C11.0485 5.44231 10.5577 4.95154 10.5577 4.34615M11.6538 5.44231V10.5577M10.5577 4.34615H5.44231M10.5577 11.6538C10.5577 12.2592 11.0485 12.75 11.6538 12.75C12.2592 12.75 12.75 12.2592 12.75 11.6538C12.75 11.0485 12.2592 10.5577 11.6538 10.5577M10.5577 11.6538C10.5577 11.0485 11.0485 10.5577 11.6538 10.5577M10.5577 11.6538H5.44231M5.44231 4.34615C5.44231 4.95154 4.95154 5.44231 4.34615 5.44231M5.44231 4.34615C5.44231 3.74076 4.95154 3.25 4.34615 3.25C3.74076 3.25 3.25 3.74076 3.25 4.34615C3.25 4.95154 3.74076 5.44231 4.34615 5.44231M4.34615 5.44231V10.5577M5.44231 11.6538C5.44231 12.2592 4.95154 12.75 4.34615 12.75C3.74076 12.75 3.25 12.2592 3.25 11.6538C3.25 11.0485 3.74076 10.5577 4.34615 10.5577M5.44231 11.6538C5.44231 11.0485 4.95154 10.5577 4.34615 10.5577" stroke="white" stroke-linecap="round" stroke-linejoin="round"/>
</svg>
