<svg width="143" height="143" viewBox="0 0 143 143" fill="none" xmlns="http://www.w3.org/2000/svg">
<path opacity="0.5" d="M20.1244 30.2827C17.875 33.4875 17.875 43.0136 17.875 62.0662V71.4488C17.875 105.042 43.1321 121.344 58.9789 128.267C63.2775 130.144 65.4267 131.083 71.5 131.083C77.5733 131.083 79.7225 130.144 84.0208 128.267C99.8676 121.344 125.125 105.042 125.125 71.4488V62.0662C125.125 43.0136 125.125 33.4875 122.876 30.2827C120.626 27.0779 111.669 24.0119 93.755 17.8797L90.342 16.7115C81.0035 13.5149 76.3346 11.9167 71.5 11.9167C66.6654 11.9167 61.9965 13.5149 52.6581 16.7115L49.2451 17.8797C31.3308 24.0119 22.3737 27.0779 20.1244 30.2827Z" fill="url(#paint0_linear_2_2852)"/>
<path d="M89.7295 62.5595C91.3728 60.7184 91.2132 57.8937 89.372 56.2499C87.5309 54.6062 84.7061 54.7661 83.0628 56.6071L65.1163 76.707L59.9379 70.9071C58.2939 69.066 55.4689 68.9063 53.628 70.5502C51.787 72.1935 51.6271 75.0184 53.2708 76.8595L61.7826 86.3928C62.6304 87.3426 63.843 87.8854 65.1163 87.8854C66.389 87.8854 67.6015 87.3426 68.4493 86.3928L89.7295 62.5595Z" fill="url(#paint1_linear_2_2852)"/>
<defs>
<linearGradient id="paint0_linear_2_2852" x1="17.875" y1="11.9167" x2="136.383" y2="118.574" gradientUnits="userSpaceOnUse">
<stop stop-color="#B39FFF"/>
<stop offset="1" stop-color="#6A1ED2"/>
</linearGradient>
<linearGradient id="paint1_linear_2_2852" x1="52.1354" y1="55.1146" x2="84.4542" y2="93.3096" gradientUnits="userSpaceOnUse">
<stop stop-color="#B39FFF"/>
<stop offset="1" stop-color="#6A1ED2"/>
</linearGradient>
</defs>
</svg>
