<svg width="282" height="224" viewBox="0 0 282 224" fill="none" xmlns="http://www.w3.org/2000/svg">
<path d="M155.969 65.961L153.97 66.0334L155.969 65.961ZM0.410979 209.409C-0.263823 210.284 -0.101949 211.539 0.772535 212.214L15.023 223.211C15.8975 223.886 17.1535 223.724 17.8283 222.849C18.5031 221.975 18.3412 220.719 17.4667 220.044L4.79959 210.269L14.5743 197.602C15.2491 196.728 15.0872 195.472 14.2127 194.797C13.3382 194.122 12.0823 194.284 11.4075 195.159L0.410979 209.409ZM281.349 1.39851C260.69 -2.20404 245.776 5.59305 233.537 18.0453C221.452 30.3415 211.717 47.4725 201.494 62.6317C191.142 77.9827 180.26 91.3933 165.699 97.3879C151.306 103.313 132.81 102.169 106.774 87.1376L104.774 90.6017C131.441 105.998 151.279 107.65 167.222 101.087C182.996 94.5925 194.452 80.2294 204.811 64.8682C215.299 49.3152 224.648 32.7955 236.39 20.8492C247.979 9.05886 261.637 2.02145 280.662 5.33904L281.349 1.39851ZM106.774 87.1376C103.048 84.9862 101.133 82.4134 100.387 79.7395C99.6303 77.0263 99.9969 73.9207 101.391 70.601C104.199 63.9111 110.954 56.9253 118.925 52.0491C126.934 47.15 135.638 44.6987 142.229 46.3363C145.45 47.1366 148.21 48.9169 150.253 51.976C152.321 55.0731 153.737 59.6118 153.97 66.0334L157.967 65.8886C157.717 58.9831 156.181 53.6522 153.579 49.7549C150.952 45.8195 147.324 43.4806 143.194 42.4543C135.082 40.439 125.226 43.5058 116.838 48.6369C108.413 53.7909 100.937 61.3473 97.7025 69.0526C96.0744 72.9306 95.4663 76.9858 96.5343 80.8143C97.6133 84.6822 100.323 88.032 104.774 90.6017L106.774 87.1376ZM153.97 66.0334C154.426 78.6146 149.534 93.2734 140.656 108.44C131.796 123.574 119.066 139.042 104.107 153.191C74.1366 181.537 35.5423 204.29 1.73871 208.647L2.25002 212.614C37.2122 208.108 76.5551 184.756 106.855 156.097C122.031 141.744 135.02 125.985 144.108 110.461C153.177 94.9681 158.462 79.5366 157.967 65.8886L153.97 66.0334Z" fill="url(#paint0_linear_2_2874)"/>
<defs>
<linearGradient id="paint0_linear_2_2874" x1="281.007" y1="3.37155" x2="29.3746" y2="-25.7724" gradientUnits="userSpaceOnUse">
<stop stop-color="#FFA4F6"/>
<stop offset="1" stop-color="#B7DCFF"/>
</linearGradient>
</defs>
</svg>
